<?xml version="1.0" encoding="utf-8"?>
<!-- Generator: Adobe Illustrator 23.0.3, SVG Export Plug-In . SVG Version: 6.00 Build 0)  -->
<svg version="1.1" id="Layer_1" xmlns="http://www.w3.org/2000/svg" xmlns:xlink="http://www.w3.org/1999/xlink" x="0px" y="0px"
	 viewBox="0 0 500 500" style="enable-background:new 0 0 500 500;" xml:space="preserve">
<style type="text/css">
	.st0{fill:#92E3A9;}
	.st1{opacity:0.8;fill:#FFFFFF;enable-background:new    ;}
	.st2{opacity:0.53;fill:#FFFFFF;enable-background:new    ;}
	.st3{fill:#263238;stroke:#263238;stroke-linecap:round;stroke-linejoin:round;}
	.st4{fill:#FFFFFF;}
	.st5{clip-path:url(#SVGID_2_);}
	.st6{fill:#FFFFFF;stroke:#263238;stroke-width:2;stroke-miterlimit:10;}
	.st7{fill:none;stroke:#263238;stroke-width:3;stroke-linecap:round;stroke-linejoin:round;}
	.st8{fill:none;stroke:#263238;stroke-linecap:round;stroke-linejoin:round;}
	.st9{clip-path:url(#SVGID_2_);fill:#302C2C;}
	.st10{fill:none;}
	.st11{fill:none;stroke:#92E3A9;stroke-miterlimit:10;}
	.st12{opacity:0.17;enable-background:new    ;}
	.st13{fill:#FFFFFF;stroke:#263238;stroke-linecap:round;stroke-linejoin:round;}
	.st14{clip-path:url(#SVGID_4_);}
	.st15{clip-path:url(#SVGID_6_);}
	.st16{clip-path:url(#SVGID_8_);}
	.st17{fill:#92E3A9;stroke:#263238;stroke-linecap:round;stroke-linejoin:round;}
	.st18{clip-path:url(#SVGID_10_);}
	.st19{clip-path:url(#SVGID_12_);}
	.st20{fill:none;stroke:#263238;stroke-width:0.75;stroke-linecap:round;stroke-linejoin:round;}
	.st21{fill:none;stroke:#FFFFFF;stroke-miterlimit:10;}
	.st22{clip-path:url(#SVGID_14_);}
	.st23{clip-path:url(#SVGID_16_);}
	.st24{clip-path:url(#SVGID_18_);}
	.st25{clip-path:url(#SVGID_20_);}
	.st26{fill:none;stroke:#FFFFFF;stroke-linecap:round;stroke-linejoin:round;}
</style>
<g id="freepik--background-simple--inject-2">
	<path class="st0" d="M424.2,135.1c0,0-24.3-45.7-78.1-52.5s-91.2,26.2-130.8,43.2c-20.7,8.9-44.4,5.4-66.3,9.7
		c-70.3,13.7-96.8,99.7-67.5,148.6c25.3,42.3,70,64.3,137.9,69.4s115.5,11,176.4-30.5S452.6,195.2,424.2,135.1z"/>
	<path class="st1" d="M424.2,135.1c0,0-24.3-45.7-78.1-52.5s-91.2,26.2-130.8,43.2c-20.7,8.9-44.4,5.4-66.3,9.7
		c-70.3,13.7-96.8,99.7-67.5,148.6c25.3,42.3,70,64.3,137.9,69.4s115.5,11,176.4-30.5S452.6,195.2,424.2,135.1z"/>
</g>
<g id="freepik--Shadow--inject-2">
	<ellipse class="st0" cx="191.4" cy="385.1" rx="78.7" ry="22.2"/>
	<ellipse class="st2" cx="191.4" cy="385.1" rx="78.7" ry="22.2"/>
	<path class="st0" d="M412.6,384.2c0,3.7-33.9,6.8-75.8,6.8s-75.8-3-75.8-6.8s33.9-6.8,75.8-6.8S412.6,380.4,412.6,384.2z"/>
	<path class="st2" d="M412.6,384.2c0,3.7-33.9,6.8-75.8,6.8s-75.8-3-75.8-6.8s33.9-6.8,75.8-6.8S412.6,380.4,412.6,384.2z"/>
</g>
<g id="freepik--Device--inject-2">
	<path class="st3" d="M403.8,336.7H266.3c-6.2,0-11.2-5-11.2-11.2V92.9c0-6.2,5-11.2,11.2-11.2h137.5c6.2,0,11.2,5,11.2,11.2v232.6
		C415,331.7,410,336.7,403.8,336.7z"/>
	<path class="st4" d="M271.7,90.4h126.7c4.1,0,7.4,3.3,7.4,7.4v222.8c0,4.1-3.3,7.4-7.4,7.4H271.7c-4.1,0-7.4-3.3-7.4-7.4V97.8
		C264.3,93.7,267.6,90.4,271.7,90.4z"/>
	<g>
		<defs>
			<path id="SVGID_1_" d="M271.7,90.4h126.7c4.1,0,7.4,3.3,7.4,7.4v222.8c0,4.1-3.3,7.4-7.4,7.4H271.7c-4.1,0-7.4-3.3-7.4-7.4V97.8
				C264.3,93.7,267.6,90.4,271.7,90.4z"/>
		</defs>
		<clipPath id="SVGID_2_">
			<use xlink:href="#SVGID_1_"  style="overflow:visible;"/>
		</clipPath>
		<g class="st5">
			<path class="st0" d="M264.3,241.7v78.9c0,4.1,3.3,7.4,7.4,7.4h0h126.8c4.1,0,7.4-3.3,7.4-7.4v0v-78.9H264.3z"/>
			<path class="st2" d="M264.3,241.7v78.9c0,4.1,3.3,7.4,7.4,7.4h0h126.8c4.1,0,7.4-3.3,7.4-7.4v0v-78.9H264.3z"/>
			<circle class="st0" cx="334.5" cy="152.7" r="34.5"/>
			<circle class="st2" cx="334.5" cy="152.7" r="34.5"/>
			<circle class="st6" cx="361.2" cy="127.5" r="10.2"/>
			<polyline class="st7" points="356.4,126.3 360.4,131.8 367.4,122.8 			"/>
			<path class="st0" d="M299,205.7h70.5c1.7,0,3,1.3,3,3v18c0,1.7-1.3,3-3,3H299c-1.7,0-3-1.3-3-3v-18
				C296,207,297.4,205.7,299,205.7z"/>
			<path d="M315.5,215.9c-0.2-0.2-0.2-0.4-0.2-0.6v-4.2c0-0.2,0-0.3,0-0.4c0-0.1,0-0.2,0.1-0.4c0-0.1,0.1-0.2,0.2-0.3
				c0.1-0.1,0.2-0.1,0.3-0.2c0.2-0.1,0.3-0.1,0.5-0.1h1.8c0.3,0,0.5,0,0.8,0c0.2,0,0.5,0.1,0.7,0.2c0.2,0.1,0.4,0.2,0.5,0.4
				c0.2,0.2,0.3,0.4,0.3,0.6c0.1,0.3,0.1,0.5,0.1,0.8c0,0.6-0.2,1.1-0.6,1.5c-0.5,0.4-1.2,0.5-1.8,0.5h-1.1v1.5
				c0,0.2-0.1,0.5-0.2,0.6c-0.1,0.2-0.4,0.3-0.6,0.3C315.8,216.2,315.6,216.1,315.5,215.9z M317.7,212.8c0.2,0,0.3,0,0.5,0
				c0.1,0,0.2-0.1,0.4-0.2c0.1-0.1,0.2-0.2,0.2-0.3c0.1-0.2,0.1-0.3,0.1-0.5c0-0.3-0.1-0.5-0.3-0.7c-0.2-0.1-0.5-0.2-0.8-0.2h-1v1.9
				L317.7,212.8z"/>
			<path d="M321.6,215.8c-0.3-0.3-0.5-0.8-0.5-1.3v-1.8c0-0.2,0-0.5,0.2-0.7c0.1-0.2,0.3-0.3,0.5-0.2c0.2,0,0.4,0.1,0.5,0.2
				c0.1,0.2,0.2,0.5,0.2,0.7v1.8c0,0.2,0.1,0.4,0.2,0.6c0.1,0.1,0.3,0.2,0.5,0.2c0.2,0,0.5-0.1,0.6-0.3c0.2-0.2,0.3-0.4,0.3-0.7
				v-1.6c0-0.2,0-0.5,0.2-0.7c0.1-0.2,0.3-0.3,0.5-0.2c0.2,0,0.4,0.1,0.5,0.2c0.1,0.2,0.2,0.5,0.2,0.7v2.7c0,0.2,0,0.4-0.2,0.6
				c-0.1,0.1-0.3,0.2-0.5,0.2c-0.5,0-0.7-0.3-0.7-0.8v-0.1c-0.1,0.3-0.3,0.5-0.5,0.7c-0.3,0.1-0.6,0.2-0.9,0.2
				C322.3,216.3,321.9,216.1,321.6,215.8z"/>
			<path d="M326.5,215.3v-2.8c0-0.2,0-0.3,0.1-0.4c0.1-0.1,0.2-0.2,0.4-0.2c0.1,0,0.3,0,0.4,0c0.1,0,0.3,0.1,0.3,0.2
				c0.1,0.1,0.2,0.3,0.1,0.4v0.2c0-0.1,0.1-0.2,0.2-0.3c0.1-0.1,0.1-0.2,0.2-0.3c0.1-0.1,0.2-0.2,0.3-0.2c0.1-0.1,0.3-0.1,0.4-0.1
				c0.1,0,0.2,0,0.3,0.1c0.1,0,0.1,0.1,0.2,0.2c0,0.1,0.1,0.1,0.1,0.2c0,0.1,0,0.2,0,0.3c0,0.1,0,0.2-0.1,0.2c0,0.1-0.1,0.1-0.2,0.2
				c-0.1,0-0.2,0.1-0.3,0.1c-0.3,0-0.6,0.1-0.8,0.3c-0.2,0.2-0.3,0.4-0.3,0.7v1.5c0,0.2,0,0.5-0.2,0.7c-0.1,0.2-0.3,0.2-0.5,0.2
				C326.8,216.2,326.5,215.9,326.5,215.3z"/>
			<path d="M331.4,216.1c-0.3-0.1-0.5-0.2-0.7-0.4c-0.2-0.2-0.4-0.4-0.5-0.7c-0.1-0.3-0.2-0.7-0.2-1c0-0.4,0.1-0.8,0.3-1.2
				c0.2-0.3,0.5-0.6,0.9-0.8c0.4-0.2,0.8-0.3,1.2-0.3c0.3,0,0.5,0,0.8,0.1c0.2,0.1,0.4,0.2,0.6,0.3c0.1,0.1,0.1,0.2,0.2,0.3
				c0,0.1,0,0.2,0,0.3c0,0.1-0.1,0.2-0.1,0.3c-0.1,0.1-0.1,0.1-0.2,0.1c-0.1,0-0.2,0-0.3-0.1c-0.2-0.1-0.5-0.2-0.8-0.2
				c-0.3,0-0.6,0.1-0.8,0.3c-0.2,0.2-0.3,0.5-0.3,0.9c0,0.2,0,0.4,0.1,0.6c0.2,0.4,0.5,0.6,0.9,0.6c0.3,0,0.6-0.1,0.8-0.2
				c0.1,0,0.2,0,0.3,0c0.1,0,0.2,0.1,0.2,0.1c0.1,0.1,0.1,0.2,0.1,0.3c0,0.1,0,0.2,0,0.3c0,0.1-0.1,0.2-0.2,0.3
				c-0.2,0.1-0.4,0.2-0.6,0.3c-0.3,0.1-0.6,0.1-0.8,0.1C332,216.3,331.7,216.2,331.4,216.1z"/>
			<path d="M334.8,215.3v-4.5c0-0.2,0-0.5,0.2-0.7c0.1-0.2,0.3-0.2,0.5-0.2c0.5,0,0.7,0.3,0.7,0.9v1.7c0.3-0.5,0.9-0.8,1.6-0.8
				c0.2,0,0.4,0.1,0.5,0.1c0.2,0.1,0.3,0.2,0.5,0.3c0.1,0.1,0.2,0.3,0.3,0.5c0.1,0.2,0.1,0.5,0.1,0.7v1.9c0,0.2,0,0.5-0.2,0.7
				c-0.1,0.2-0.3,0.3-0.5,0.2c-0.5,0-0.7-0.3-0.7-0.9v-1.9c0-0.2-0.1-0.4-0.2-0.6c-0.1-0.1-0.3-0.2-0.5-0.2c-0.2,0-0.5,0.1-0.6,0.3
				c-0.2,0.2-0.3,0.5-0.3,0.7v1.7c0,0.2,0,0.5-0.2,0.7c-0.1,0.2-0.3,0.3-0.5,0.2C335,216.2,334.8,215.9,334.8,215.3z"/>
			<path d="M340.4,215.9c-0.5-0.5-0.5-1.3-0.1-1.8c0.1-0.1,0.2-0.2,0.3-0.2c0.7-0.2,1.4-0.3,2.2-0.3v-0.3c0-0.4-0.2-0.7-0.7-0.7
				c-0.4,0-0.9,0.1-1.3,0.3c-0.1,0.1-0.3,0-0.4-0.1c-0.1-0.1-0.2-0.3-0.2-0.4c0-0.2,0.1-0.3,0.3-0.4c0.2-0.1,0.5-0.2,0.8-0.2
				c0.3-0.1,0.6-0.1,0.9-0.1c0.3,0,0.5,0,0.8,0.1c0.2,0.1,0.4,0.2,0.6,0.3c0.2,0.2,0.3,0.4,0.4,0.6c0.1,0.3,0.1,0.6,0.1,0.9v1.9
				c0,0.2,0,0.3-0.1,0.5c-0.1,0.1-0.2,0.2-0.3,0.2c-0.1,0-0.2,0-0.4,0c-0.1,0-0.2-0.1-0.3-0.2c-0.1-0.1-0.1-0.3-0.1-0.5v-0.1
				c-0.2,0.6-0.8,0.9-1.4,0.9C341,216.3,340.7,216.1,340.4,215.9z M342.4,215.2c0.2-0.2,0.4-0.5,0.4-0.8v-0.2h-0.4H342
				c-0.1,0-0.2,0-0.3,0.1c-0.1,0-0.2,0-0.2,0.1c-0.1,0-0.1,0.1-0.2,0.1c0,0.1-0.1,0.1-0.1,0.2c0,0.1,0,0.2,0,0.2
				c0,0.3,0.2,0.6,0.5,0.6c0,0,0,0,0,0C342,215.4,342.2,215.4,342.4,215.2L342.4,215.2z"/>
			<path d="M345.1,215.7c-0.1-0.1-0.1-0.1-0.2-0.2c0-0.1,0-0.2,0-0.3c0-0.1,0.1-0.2,0.1-0.2c0.1-0.1,0.1-0.1,0.2-0.1
				c0.1,0,0.2,0,0.3,0.1l0.2,0.1l0.2,0.1c0.1,0,0.2,0.1,0.3,0.1c0.1,0,0.3,0.1,0.4,0.1h0.3l0.3-0.1c0.1,0,0.2-0.1,0.2-0.1
				c0.1-0.1,0.1-0.2,0.1-0.2c0-0.1-0.1-0.2-0.1-0.2c-0.1-0.1-0.2-0.1-0.4-0.2l-0.6-0.2l-0.5-0.2c-0.1-0.1-0.3-0.1-0.4-0.2
				c-0.1-0.1-0.2-0.1-0.3-0.2c-0.1-0.1-0.1-0.2-0.2-0.3c-0.1-0.1-0.1-0.3-0.1-0.5c0-0.4,0.2-0.8,0.5-1c0.4-0.3,1-0.4,1.5-0.3
				c0.2,0,0.3,0,0.5,0.1l0.4,0.1l0.3,0.1c0.1,0,0.2,0.1,0.2,0.2c0.1,0.1,0.1,0.2,0.1,0.3c0,0.1,0,0.2-0.1,0.2c0,0.1-0.1,0.1-0.2,0.1
				c-0.1,0-0.2,0-0.3,0c-0.3-0.1-0.6-0.2-0.9-0.2h-0.3c-0.1,0-0.2,0-0.3,0.1c-0.1,0-0.1,0.1-0.2,0.2c0,0.1,0,0.2,0.1,0.3
				c0.1,0.1,0.3,0.1,0.4,0.1l0.6,0.1c0.2,0.1,0.4,0.1,0.6,0.2c0.2,0.1,0.3,0.1,0.5,0.3c0.1,0.1,0.2,0.2,0.3,0.4
				c0.2,0.4,0.1,1-0.2,1.4c-0.2,0.2-0.4,0.4-0.7,0.5c-0.3,0.1-0.7,0.2-1,0.1C346.2,216.2,345.6,216.1,345.1,215.7z"/>
			<path d="M350.5,216c-0.4-0.2-0.6-0.4-0.8-0.8c-0.2-0.4-0.3-0.8-0.3-1.3c0-0.4,0.1-0.8,0.3-1.2c0.2-0.3,0.5-0.6,0.8-0.8
				c0.4-0.2,0.8-0.3,1.2-0.3c0.3,0,0.6,0,0.9,0.2c0.3,0.1,0.5,0.3,0.7,0.5c0.2,0.2,0.3,0.4,0.3,0.7c0.1,0.3,0.1,0.5,0.1,0.8
				c0,0.2-0.1,0.4-0.4,0.4h-2.5c0,0.6,0.4,1,0.9,1.1c0.1,0,0.2,0,0.2,0c0.2,0,0.4,0,0.6-0.1c0.2-0.1,0.4-0.2,0.5-0.3
				c0.1-0.1,0.3-0.1,0.4,0c0.1,0.1,0.2,0.2,0.3,0.3c0.1,0.1,0,0.3-0.1,0.4c-0.1,0.1-0.2,0.2-0.3,0.2l-0.4,0.2
				c-0.2,0.1-0.3,0.1-0.5,0.2c-0.2,0-0.4,0.1-0.6,0.1C351.3,216.3,350.8,216.2,350.5,216z M352.5,213.6c0-0.3-0.1-0.5-0.2-0.8
				c-0.2-0.2-0.4-0.3-0.7-0.3c-0.3,0-0.5,0.1-0.7,0.3c-0.2,0.2-0.3,0.5-0.3,0.8H352.5z"/>
			<path d="M311.3,224.6c-0.3-0.1-0.5-0.2-0.7-0.4c-0.2-0.2-0.4-0.4-0.5-0.7c-0.1-0.3-0.2-0.7-0.2-1c0-0.4,0.1-0.8,0.3-1.2
				c0.2-0.3,0.5-0.6,0.8-0.8c0.4-0.2,0.8-0.3,1.2-0.3c0.3,0,0.5,0,0.8,0.1c0.2,0.1,0.4,0.2,0.6,0.3c0.1,0.1,0.1,0.2,0.2,0.3
				c0,0.1,0,0.2,0,0.3c0,0.1-0.1,0.2-0.1,0.3c-0.1,0.1-0.1,0.1-0.2,0.1c-0.1,0-0.2,0-0.3-0.1c-0.2-0.1-0.5-0.2-0.8-0.2
				c-0.3,0-0.5,0.1-0.8,0.3c-0.2,0.2-0.3,0.5-0.3,0.9c0,0.2,0,0.4,0.1,0.6c0.1,0.2,0.2,0.3,0.3,0.4c0.2,0.1,0.4,0.2,0.6,0.2
				c0.3,0,0.6-0.1,0.8-0.2c0.1,0,0.2-0.1,0.3-0.1c0.1,0,0.2,0.1,0.2,0.1c0.1,0.1,0.1,0.2,0.1,0.3c0,0.1,0,0.2,0,0.3
				c0,0.1-0.1,0.2-0.2,0.3c-0.2,0.1-0.4,0.2-0.6,0.3c-0.3,0.1-0.6,0.1-0.8,0.1C311.9,224.7,311.6,224.7,311.3,224.6z"/>
			<path d="M315.1,224.1c-0.4-0.4-0.7-1-0.6-1.6c0-0.3,0-0.6,0.1-0.9c0.1-0.3,0.2-0.5,0.4-0.7c0.2-0.2,0.5-0.4,0.8-0.5
				c0.3-0.1,0.7-0.2,1.1-0.2c0.7,0,1.3,0.2,1.8,0.6c0.4,0.4,0.7,1,0.6,1.7c0,0.3,0,0.6-0.2,0.9c-0.1,0.3-0.3,0.5-0.5,0.7
				c-0.2,0.2-0.5,0.4-0.8,0.5c-0.3,0.1-0.7,0.2-1.1,0.2C316.2,224.7,315.6,224.5,315.1,224.1z M317.6,223.4c0.2-0.3,0.3-0.6,0.3-1
				c0-0.4-0.1-0.7-0.3-1c-0.3-0.4-0.9-0.5-1.3-0.2c-0.1,0-0.1,0.1-0.2,0.2c-0.2,0.3-0.3,0.6-0.3,1c0,0.4,0.1,0.7,0.3,1
				c0.3,0.4,0.9,0.5,1.3,0.2C317.5,223.6,317.6,223.5,317.6,223.4z"/>
			<path d="M320.4,224.4c-0.1-0.2-0.2-0.5-0.2-0.7v-2.6c0-0.2,0-0.5,0.2-0.7c0.1-0.2,0.3-0.2,0.5-0.2c0.4,0,0.7,0.2,0.7,0.6
				c0,0,0,0.1,0,0.1v0.1c0.1-0.3,0.3-0.5,0.5-0.7c0.3-0.2,0.6-0.2,0.9-0.2c0.1,0,0.3,0,0.4,0c0.1,0,0.3,0.1,0.4,0.1
				c0.1,0.1,0.2,0.2,0.3,0.3c0.1,0.2,0.2,0.3,0.2,0.5c0.1-0.2,0.2-0.3,0.3-0.5c0.1-0.1,0.3-0.2,0.4-0.3c0.1-0.1,0.3-0.1,0.4-0.1
				c0.2,0,0.3,0,0.5,0c0.4,0,0.8,0.1,1.1,0.4c0.3,0.3,0.4,0.8,0.4,1.2v1.9c0,0.2,0,0.5-0.2,0.7c-0.1,0.2-0.3,0.3-0.5,0.2
				c-0.5,0-0.7-0.3-0.7-0.9v-1.9c0-0.2-0.1-0.4-0.2-0.6c-0.1-0.1-0.3-0.2-0.5-0.2c-0.2,0-0.5,0.1-0.6,0.3c-0.2,0.2-0.3,0.4-0.3,0.7
				v1.7c0,0.2,0,0.5-0.2,0.7c-0.1,0.2-0.3,0.3-0.5,0.2c-0.5,0-0.7-0.3-0.7-0.9V222c0-0.2,0-0.5-0.2-0.7c-0.1-0.2-0.3-0.2-0.5-0.2
				c-0.2,0-0.5,0.1-0.6,0.2c-0.2,0.2-0.3,0.4-0.3,0.6v1.8c0,0.6-0.2,0.9-0.7,0.9C320.7,224.7,320.5,224.6,320.4,224.4z"/>
			<path d="M328.8,226c-0.1-0.2-0.2-0.5-0.1-0.7v-4.1c0-0.3,0-0.5,0.2-0.7c0.1-0.2,0.3-0.3,0.5-0.3c0.2,0,0.4,0.1,0.5,0.2
				c0.1,0.1,0.2,0.3,0.2,0.5v0.1c0.1-0.3,0.3-0.5,0.6-0.6c0.8-0.4,1.7-0.2,2.3,0.4c0.4,0.5,0.6,1.1,0.5,1.7c0,0.3-0.1,0.7-0.2,1
				c-0.1,0.3-0.2,0.5-0.4,0.7c-0.2,0.2-0.4,0.3-0.6,0.4c-0.2,0.1-0.5,0.1-0.8,0.1c-0.3,0-0.6-0.1-0.9-0.2c-0.2-0.1-0.4-0.3-0.5-0.6
				v1.4c0,0.6-0.2,0.9-0.7,0.9C329.1,226.3,328.9,226.2,328.8,226z M331.8,223.4c0.2-0.3,0.3-0.6,0.3-1c0-0.2,0-0.3,0-0.5
				c0-0.1-0.1-0.3-0.2-0.4c-0.1-0.1-0.2-0.2-0.3-0.3c-0.2-0.1-0.3-0.2-0.5-0.2c-0.7,0-1,0.5-1,1.4c0,0.4,0.1,0.7,0.3,1
				c0.2,0.2,0.5,0.4,0.8,0.3C331.3,223.7,331.6,223.6,331.8,223.4L331.8,223.4z"/>
			<path d="M334.5,224.4c-0.1-0.2-0.2-0.5-0.2-0.7v-4.5c0-0.2,0-0.5,0.2-0.7c0.1-0.2,0.3-0.3,0.5-0.2c0.2,0,0.4,0.1,0.5,0.2
				c0.1,0.2,0.2,0.5,0.2,0.7v4.5c0,0.2,0,0.5-0.2,0.7c-0.1,0.2-0.3,0.3-0.5,0.2C334.8,224.7,334.6,224.6,334.5,224.4z"/>
			<path d="M337.7,224.4c-0.4-0.2-0.6-0.4-0.8-0.8c-0.2-0.4-0.3-0.8-0.3-1.3c0-0.4,0.1-0.8,0.3-1.2c0.2-0.3,0.5-0.6,0.8-0.8
				c0.4-0.2,0.8-0.3,1.2-0.3c0.3,0,0.6,0,1,0.2c0.3,0.1,0.5,0.3,0.6,0.5c0.2,0.2,0.3,0.4,0.4,0.7c0.1,0.3,0.1,0.5,0.1,0.8
				c0,0.2-0.1,0.4-0.5,0.4H338c0,0.6,0.4,1,0.9,1.1c0.1,0,0.2,0,0.2,0c0.2,0,0.4,0,0.6-0.1c0.2-0.1,0.4-0.2,0.5-0.3
				c0.1-0.1,0.2-0.1,0.4,0c0.1,0.1,0.2,0.2,0.3,0.3c0,0.1,0,0.3-0.1,0.4c-0.1,0.1-0.2,0.2-0.3,0.2l-0.4,0.2
				c-0.2,0.1-0.3,0.1-0.5,0.2c-0.2,0-0.4,0.1-0.6,0.1C338.6,224.7,338.1,224.6,337.7,224.4z M339.8,222c0-0.3-0.1-0.5-0.2-0.8
				c-0.2-0.2-0.4-0.3-0.7-0.3c-0.3,0-0.5,0.1-0.7,0.3c-0.2,0.2-0.3,0.5-0.3,0.8H339.8z"/>
			<path d="M342.5,224.3c-0.3-0.4-0.4-0.8-0.4-1.3v-1.9h-0.3c-0.1,0-0.3,0-0.4-0.1c-0.1-0.1-0.1-0.2-0.1-0.4c0-0.2,0.1-0.4,0.4-0.5
				c0,0,0.1,0,0.1,0h0.4l0.1-0.9c0-0.6,0.3-0.8,0.7-0.8s0.5,0.3,0.5,0.9v0.8h0.5c0.3,0,0.5,0.2,0.5,0.5c0,0.1,0,0.3-0.1,0.4
				c-0.1,0.1-0.2,0.1-0.4,0.1h-0.5v1.6c0,0.3,0,0.5,0.1,0.8c0.1,0.1,0.2,0.2,0.5,0.2h0.3c0.1,0,0.2,0,0.2,0.1
				c0.1,0.1,0.1,0.1,0.1,0.2c0,0.1,0,0.2,0,0.2c0,0.1,0,0.2-0.1,0.2c0,0.1-0.1,0.1-0.2,0.1c-0.3,0.1-0.7,0.1-1,0.1
				C343.1,224.7,342.8,224.6,342.5,224.3z"/>
			<path d="M346.5,224.4c-0.4-0.2-0.6-0.4-0.8-0.8c-0.2-0.4-0.3-0.8-0.3-1.3c0-0.4,0.1-0.8,0.3-1.2c0.2-0.3,0.5-0.6,0.8-0.8
				c0.4-0.2,0.8-0.3,1.2-0.3c0.3,0,0.6,0,0.9,0.2c0.3,0.1,0.5,0.3,0.6,0.5c0.2,0.2,0.3,0.4,0.4,0.7c0.1,0.3,0.1,0.5,0.1,0.8
				c0,0.2-0.2,0.4-0.4,0.4h-2.5c0,0.6,0.4,1,0.9,1.1c0.1,0,0.2,0,0.2,0c0.2,0,0.4,0,0.6-0.1c0.2-0.1,0.3-0.2,0.5-0.3
				c0.1-0.1,0.3-0.1,0.4,0c0.1,0.1,0.2,0.2,0.3,0.3c0.1,0.1,0,0.3-0.1,0.4c-0.1,0.1-0.2,0.2-0.3,0.2l-0.4,0.2
				c-0.2,0.1-0.3,0.1-0.5,0.2c-0.2,0-0.4,0.1-0.6,0.1C347.3,224.7,346.8,224.6,346.5,224.4z M348.5,222c0-0.3-0.1-0.5-0.2-0.8
				c-0.2-0.2-0.4-0.3-0.7-0.3c-0.3,0-0.5,0.1-0.7,0.3c-0.2,0.2-0.3,0.5-0.3,0.8H348.5z"/>
			<path d="M350.9,224.1c-0.4-0.5-0.6-1.1-0.5-1.7c0-0.3,0-0.7,0.1-1c0.1-0.3,0.2-0.5,0.4-0.7c0.2-0.2,0.4-0.3,0.6-0.4
				c0.2-0.1,0.5-0.1,0.8-0.1c0.3,0,0.6,0.1,0.9,0.2c0.2,0.1,0.4,0.3,0.5,0.6v-1.7c0-0.2,0-0.5,0.2-0.7c0.1-0.2,0.3-0.2,0.6-0.2
				c0.2,0,0.4,0.1,0.5,0.2c0.1,0.2,0.2,0.5,0.2,0.7v4.5c0,0.3,0,0.5-0.2,0.7c-0.1,0.2-0.3,0.3-0.5,0.3c-0.2,0-0.4-0.1-0.5-0.2
				c-0.1-0.1-0.2-0.3-0.2-0.5l0,0c-0.3,0.6-0.8,0.9-1.5,0.8C351.7,224.8,351.2,224.5,350.9,224.1z M353.7,222.5c0-0.4-0.1-0.7-0.3-1
				c-0.2-0.2-0.5-0.4-0.8-0.4c-0.3,0-0.6,0.1-0.8,0.4c-0.2,0.3-0.3,0.6-0.3,1c0,0.2,0,0.3,0.1,0.5c0,0.2,0.1,0.3,0.2,0.4
				c0.1,0.1,0.2,0.3,0.3,0.3c0.1,0.1,0.3,0.1,0.5,0.1C353.4,223.9,353.7,223.4,353.7,222.5L353.7,222.5z"/>
			<path d="M356.6,218.8c-0.1-0.3,0.1-0.6,0.4-0.7c0.3-0.1,0.6-0.1,0.9,0c0.3,0.1,0.5,0.4,0.4,0.7l-0.4,3.3c0,0.1-0.1,0.2-0.1,0.3
				c-0.1,0.1-0.2,0.1-0.3,0.1c-0.1,0-0.2,0-0.3-0.1c-0.1-0.1-0.1-0.2-0.1-0.4L356.6,218.8z M356.9,224.4c-0.1-0.1-0.2-0.3-0.2-0.5
				c0-0.2,0.1-0.4,0.2-0.5c0.1-0.1,0.3-0.2,0.5-0.2c0.2,0,0.4,0.1,0.5,0.2c0.1,0.1,0.2,0.3,0.2,0.5c0,0.2-0.1,0.4-0.2,0.5
				C357.6,224.7,357.2,224.7,356.9,224.4C356.9,224.5,356.9,224.5,356.9,224.4z"/>
			<line class="st8" x1="280.2" y1="262.1" x2="388.5" y2="262.1"/>
			<line class="st8" x1="280.2" y1="275" x2="388.5" y2="275"/>
			<line class="st8" x1="280.2" y1="288" x2="388.5" y2="288"/>
			<line class="st8" x1="280.2" y1="300.9" x2="388.5" y2="300.9"/>
			<path class="st0" d="M398.4,90.4H271.7c-4.1,0-7.4,3.3-7.4,7.4c0,0,0,0,0,0v5.3H346l4.3-4.8h55.5v-0.4
				C405.8,93.7,402.5,90.4,398.4,90.4z"/>
		</g>
		<path class="st9" d="M327,150v0.9c0,0.1,0,0.2-0.1,0.2c-0.1,0.1-0.1,0.1-0.2,0.1h-1.5c-0.1,0.9-0.5,1.6-1.2,2.1
			c-0.6,0.5-1.5,0.9-2.5,1c1,1.1,2.4,2.7,4.1,4.8c0.1,0.1,0.1,0.2,0,0.3c0,0.1-0.1,0.2-0.3,0.2h-1.8c-0.1,0-0.2,0-0.2-0.1
			c-1.8-2.2-3.3-3.9-4.5-5.1c-0.1-0.1-0.1-0.1-0.1-0.2V153c0-0.1,0-0.1,0.1-0.2c0.1-0.1,0.1-0.1,0.2-0.1h1c0.8,0,1.4-0.1,1.9-0.4
			c0.5-0.3,0.8-0.6,0.9-1.1h-3.8c-0.1,0-0.2,0-0.2-0.1c-0.1-0.1-0.1-0.1-0.1-0.2V150c0-0.1,0-0.2,0.1-0.2c0.1-0.1,0.1-0.1,0.2-0.1
			h3.7c-0.3-0.7-1.1-1-2.4-1h-1.3c-0.1,0-0.1,0-0.2-0.1c-0.1-0.1-0.1-0.1-0.1-0.2v-1.2c0-0.1,0-0.2,0.1-0.2c0.1-0.1,0.1-0.1,0.2-0.1
			h7.5c0.1,0,0.2,0,0.2,0.1c0.1,0.1,0.1,0.1,0.1,0.2v0.9c0,0.1,0,0.2-0.1,0.2c-0.1,0.1-0.1,0.1-0.2,0.1h-2.1
			c0.3,0.4,0.5,0.8,0.6,1.3h1.5c0.1,0,0.2,0,0.2,0.1C327,149.9,327,149.9,327,150z"/>
	</g>
	<g>
		<path class="st10" d="M325.9,141.4h26.8v23.9h-26.8V141.4z"/>
		<path d="M339.3,142.8c1.5,0,2.8,0.3,3.9,1c1.1,0.6,1.9,1.6,2.5,2.8c0.6,1.2,0.9,2.6,0.9,4.2v4.9c0,1.6-0.3,3.1-0.9,4.2
			c-0.6,1.2-1.4,2.1-2.5,2.8c-1.1,0.6-2.4,1-3.9,1c-1.5,0-2.8-0.3-3.9-1c-1.1-0.6-1.9-1.6-2.5-2.8c-0.6-1.2-0.9-2.6-0.9-4.2v-4.9
			c0-1.6,0.3-3.1,0.9-4.2c0.6-1.2,1.4-2.1,2.5-2.8C336.5,143.2,337.8,142.8,339.3,142.8z M339.3,144.8c-1,0-1.9,0.2-2.6,0.7
			c-0.7,0.4-1.3,1.1-1.7,1.9c-0.5,0.9-0.7,2.1-0.7,3.4v4.9c0,1.3,0.2,2.5,0.7,3.4c0.4,0.8,1,1.5,1.7,1.9c0.7,0.4,1.6,0.7,2.6,0.7
			s1.9-0.2,2.6-0.7c0.7-0.4,1.3-1.1,1.7-1.9c0.5-0.9,0.7-2.1,0.7-3.4v-4.9c0-1.3-0.2-2.5-0.7-3.4c-0.4-0.8-1-1.5-1.7-1.9
			C341.2,145.1,340.3,144.8,339.3,144.8z"/>
	</g>
	<path class="st8" d="M271.7,90.4h126.7c4.1,0,7.4,3.3,7.4,7.4v222.8c0,4.1-3.3,7.4-7.4,7.4H271.7c-4.1,0-7.4-3.3-7.4-7.4V97.8
		C264.3,93.7,267.6,90.4,271.7,90.4z"/>
	<path class="st4" d="M412.7,296.5v7.6c0,0.4,0.3,0.7,0.7,0.7c0,0,0,0,0,0l0,0c0.4,0,0.7-0.3,0.7-0.7c0,0,0,0,0,0v-7.6
		c0-0.4-0.3-0.7-0.7-0.7c0,0,0,0,0,0l0,0C413.1,295.8,412.7,296.1,412.7,296.5C412.7,296.5,412.7,296.5,412.7,296.5z"/>
	<path class="st4" d="M412.7,267.4V283c0,0.4,0.4,0.6,0.7,0.6l0,0c0.4,0,0.7-0.2,0.7-0.6v-15.6c0-0.4-0.4-0.6-0.7-0.6l0,0
		C413.1,266.8,412.8,267.1,412.7,267.4z"/>
</g>
<g id="freepik--Plants--inject-2">
	<path class="st11" d="M110.2,313.8c0,0,4-10-9.3-36s-0.7-68-0.7-68"/>
	<path class="st11" d="M118.2,316.5c0,0,4.7-10-0.7-24.7s-3.9-23-3.9-23"/>
	<path class="st11" d="M97.9,271.1c0,0-10.4-12.7-14.4-28s-4-22.7-4-22.7"/>
	<path class="st11" d="M104.2,311.1c0,0-4.7-6-6-24c-0.8-11,0.4-22,3.3-32.7"/>
	<polygon class="st4" points="99,367.6 122.8,367.6 125.7,309.3 96.1,309.3 	"/>
	<polygon class="st12" points="99,367.6 122.8,367.6 125.7,309.3 96.1,309.3 	"/>
	<path class="st0" d="M104.9,277.7c0,0.4,0.6,0.7,0.7,1.1s-0.2,0.9-0.1,1.3s0.8,0.5,1,0.9s0,0.9,0.3,1.3s0.9,0.3,1.1,0.6
		s0.3,0.9,0.6,1.1s0.9,0.1,1.3,0.3s0.5,0.8,0.8,1s0.9-0.2,1.3-0.1s0.7,0.6,1.1,0.7s0.8-0.4,1.2-0.4s0.8,0.5,1.2,0.4s0.7-0.6,1.1-0.7
		s0.9,0.2,1.3,0.1s0.5-0.8,0.8-1s0.9,0,1.3-0.3s0.3-0.9,0.6-1.1s0.9-0.3,1.1-0.6s0.1-0.9,0.3-1.3s0.8-0.5,1-0.9s-0.2-0.9-0.1-1.3
		s0.6-0.7,0.7-1.1s-0.4-0.8-0.4-1.2s0.4-0.8,0.4-1.2s-0.6-0.7-0.7-1.1s0.2-0.9,0.1-1.3s-0.8-0.5-1-0.9s0-0.9-0.3-1.3
		s-0.9-0.3-1.1-0.6s-0.3-0.9-0.6-1.1s-0.9-0.1-1.3-0.3s-0.5-0.8-0.8-1s-0.9,0.2-1.3,0.1s-0.7-0.6-1.1-0.7s-0.8,0.4-1.2,0.4
		s-0.8-0.5-1.2-0.4s-0.7,0.6-1.1,0.7s-0.9-0.2-1.3-0.1s-0.5,0.8-0.9,1s-0.9,0-1.3,0.3s-0.3,0.9-0.6,1.1s-0.9,0.3-1.1,0.6
		s-0.1,0.9-0.3,1.3s-0.8,0.5-1,0.9s0.2,0.9,0.1,1.3s-0.7,0.7-0.7,1.1s0.4,0.8,0.4,1.2S104.9,277.4,104.9,277.7z M92.4,251.4
		c0-0.5-0.6-1-0.5-1.5s0.8-0.9,0.9-1.4s-0.3-1.1-0.1-1.6s0.9-0.6,1.2-1.1s0-1.2,0.3-1.6s1.1-0.4,1.4-0.7s0.3-1.1,0.7-1.4
		s1.1-0.1,1.6-0.3s0.6-1,1.1-1.2s1.1,0.2,1.6,0.1s0.8-0.8,1.3-0.9s1,0.5,1.5,0.5s1-0.6,1.5-0.5s0.9,0.8,1.3,0.9s1.2-0.3,1.6-0.1
		s0.6,0.9,1.1,1.2s1.2,0,1.6,0.3s0.4,1.1,0.7,1.4s1.1,0.3,1.4,0.7s0.1,1.1,0.3,1.6s1,0.6,1.2,1.1s-0.2,1.1-0.1,1.6s0.8,0.9,0.9,1.4
		s-0.5,1-0.5,1.5s0.6,1,0.5,1.5s-0.8,0.9-0.9,1.4s0.3,1.1,0.1,1.6c-0.2,0.5-0.9,0.6-1.2,1.1s0,1.2-0.3,1.6s-1.1,0.4-1.4,0.7
		s-0.3,1.1-0.7,1.4s-1.2,0.1-1.6,0.3s-0.6,1-1.1,1.2s-1.1-0.2-1.6-0.1s-0.8,0.8-1.3,0.9s-1-0.5-1.5-0.5s-1,0.6-1.5,0.5
		s-0.9-0.8-1.4-0.9s-1.2,0.3-1.6,0.1s-0.7-1-1.1-1.2s-1.2,0-1.6-0.3s-0.4-1.1-0.7-1.4s-1.1-0.3-1.4-0.7s-0.1-1.1-0.3-1.6
		s-1-0.6-1.2-1.1s0.2-1.1,0.1-1.6s-0.8-0.9-0.9-1.4S92.4,252,92.4,251.4z M91,296.2c0-0.5-0.6-1-0.5-1.5s0.8-0.9,0.9-1.4
		s-0.3-1.1-0.1-1.6s1-0.6,1.2-1.1s0-1.2,0.3-1.6s1.1-0.4,1.4-0.7s0.3-1.1,0.7-1.4s1.1-0.1,1.6-0.3s0.6-1,1.1-1.2s1.1,0.2,1.6,0.1
		s0.8-0.8,1.3-0.9s1,0.5,1.5,0.5s1-0.6,1.5-0.5s0.9,0.8,1.3,0.9s1.2-0.3,1.6-0.1s0.6,1,1.1,1.2s1.2,0,1.6,0.3s0.4,1.1,0.7,1.4
		s1.1,0.3,1.4,0.7s0.1,1.1,0.3,1.6s1,0.6,1.2,1.1s-0.2,1.1-0.1,1.6s0.8,0.9,0.9,1.4s-0.5,1-0.5,1.5s0.6,1,0.5,1.5s-0.8,0.9-0.9,1.4
		s0.3,1.1,0.1,1.6s-1,0.6-1.2,1.1s0,1.2-0.3,1.6s-1.1,0.4-1.4,0.7s-0.3,1.1-0.7,1.4s-1.2,0.1-1.6,0.3s-0.6,1-1.1,1.2
		s-1.1-0.2-1.6-0.1s-0.8,0.8-1.3,0.9s-1-0.5-1.5-0.5s-1,0.6-1.5,0.5s-0.9-0.8-1.3-0.9s-1.2,0.3-1.6,0.1s-0.7-1-1.1-1.2
		s-1.2,0-1.6-0.3s-0.4-1.1-0.7-1.4s-1.1-0.3-1.4-0.7s-0.1-1.1-0.3-1.6s-1-0.6-1.2-1.1s0.2-1.1,0.1-1.6s-0.8-0.9-0.9-1.4
		S91,296.7,91,296.2z M114,302.5c0-0.3-0.6-0.7-0.5-1s0.7-0.5,0.8-0.9s-0.4-0.8-0.3-1.1s0.8-0.3,1-0.6s-0.2-0.9,0-1.2
		s0.9-0.1,1.1-0.3s0.1-0.9,0.3-1.1s0.9,0.1,1.2,0s0.3-0.8,0.6-1s0.8,0.3,1.1,0.3s0.5-0.7,0.8-0.8s0.7,0.5,1,0.5s0.7-0.6,1-0.5
		s0.5,0.7,0.9,0.8s0.8-0.4,1.1-0.3s0.3,0.8,0.6,1s0.9-0.1,1.2,0.1s0.1,0.9,0.3,1.1s0.9,0.1,1.1,0.3s-0.1,0.9,0.1,1.2s0.9,0.3,1,0.6
		s-0.3,0.8-0.3,1.1s0.7,0.5,0.8,0.9s-0.5,0.7-0.5,1s0.6,0.7,0.5,1s-0.7,0.5-0.8,0.9s0.4,0.8,0.3,1.1s-0.8,0.3-1,0.6s0.2,0.9-0.1,1.1
		s-0.9,0.1-1.1,0.4s-0.1,0.9-0.3,1.1s-0.9-0.1-1.2,0s-0.3,0.9-0.6,1s-0.8-0.3-1.1-0.3s-0.5,0.7-0.9,0.8s-0.7-0.5-1-0.5
		s-0.7,0.6-1,0.5s-0.5-0.7-0.8-0.8s-0.8,0.4-1.1,0.3s-0.3-0.8-0.6-1s-0.9,0.1-1.2,0s-0.1-0.9-0.3-1.1s-0.9-0.1-1.1-0.4
		s0.1-0.9,0-1.1s-0.8-0.3-1-0.6s0.3-0.8,0.3-1.1s-0.7-0.5-0.8-0.9S114,302.9,114,302.5L114,302.5z M89.7,211.1
		c0-0.5-0.6-1.1-0.5-1.5s0.8-0.9,0.9-1.4s-0.3-1.1-0.1-1.6s1-0.6,1.2-1.1s0-1.2,0.3-1.6s1.1-0.4,1.4-0.7s0.3-1.1,0.7-1.4
		s1.1-0.1,1.6-0.3s0.6-1,1.1-1.2s1.1,0.2,1.6,0.1s0.8-0.8,1.3-0.9s1,0.5,1.5,0.5s1-0.6,1.5-0.5s0.9,0.8,1.3,0.9s1.2-0.3,1.6-0.1
		s0.6,0.9,1.1,1.2s1.2,0,1.6,0.3s0.4,1.1,0.7,1.4s1.1,0.3,1.4,0.7s0.1,1.1,0.3,1.6s1,0.6,1.2,1.1s-0.2,1.1-0.1,1.6s0.8,0.9,0.9,1.4
		s-0.5,1-0.5,1.5s0.6,1,0.5,1.5s-0.8,0.9-0.9,1.4s0.3,1.1,0.1,1.6s-1,0.6-1.2,1.1s0,1.2-0.3,1.6s-1.1,0.4-1.4,0.7s-0.3,1.1-0.7,1.4
		s-1.1,0.1-1.6,0.3s-0.6,1-1.1,1.2s-1.1-0.2-1.6-0.1s-0.8,0.8-1.3,0.9s-1-0.5-1.5-0.5s-1,0.6-1.5,0.5s-0.9-0.8-1.3-0.9
		s-1.2,0.3-1.6,0.1s-0.7-0.9-1.1-1.2s-1.2,0-1.6-0.3s-0.4-1.1-0.7-1.4s-1.1-0.3-1.4-0.7s-0.1-1.1-0.3-1.6s-1-0.6-1.2-1.1
		s0.2-1.1,0.1-1.6s-0.8-0.9-0.9-1.4S89.7,211.6,89.7,211.1z M69.3,231.4c0-0.5-0.6-1-0.5-1.5s0.8-0.9,0.9-1.4s-0.3-1.1-0.1-1.6
		s1-0.6,1.2-1.1s0-1.2,0.3-1.6s1.1-0.4,1.4-0.7s0.3-1.1,0.7-1.4s1.1-0.1,1.6-0.3s0.6-1,1.1-1.2s1.1,0.2,1.6,0.1s0.8-0.8,1.3-0.9
		s1,0.5,1.5,0.5s1-0.6,1.5-0.5s0.9,0.8,1.3,0.9s1.2-0.3,1.6-0.1s0.6,0.9,1.1,1.2s1.2,0,1.6,0.3s0.4,1.1,0.7,1.4s1.1,0.3,1.4,0.7
		s0.1,1.1,0.3,1.6s1,0.6,1.2,1.1s-0.2,1.1-0.1,1.6s0.8,0.9,0.9,1.4s-0.5,1-0.5,1.5s0.6,1.1,0.5,1.5s-0.8,0.9-0.9,1.4
		s0.3,1.1,0.1,1.6s-1,0.6-1.2,1.1s0,1.2-0.3,1.6s-1.1,0.4-1.4,0.7s-0.3,1.1-0.7,1.4s-1.1,0.1-1.6,0.3s-0.6,1-1.1,1.2
		s-1.1-0.2-1.6-0.1S82.5,243,82,243s-1-0.5-1.5-0.5s-1,0.6-1.5,0.5s-0.9-0.8-1.3-0.9s-1.2,0.3-1.6,0.1s-0.7-0.9-1.1-1.2
		s-1.2,0-1.6-0.3s-0.4-1.1-0.7-1.4s-1.1-0.3-1.4-0.7s-0.1-1.1-0.3-1.6s-1-0.6-1.2-1.1s0.2-1.1,0.1-1.6s-0.8-0.9-0.9-1.4
		S69.3,231.9,69.3,231.4z"/>
	<path class="st2" d="M104.9,277.7c0,0.4,0.6,0.7,0.7,1.1s-0.2,0.9-0.1,1.3s0.8,0.5,1,0.9s0,0.9,0.3,1.3s0.9,0.3,1.1,0.6
		s0.3,0.9,0.6,1.1s0.9,0.1,1.3,0.3s0.5,0.8,0.8,1s0.9-0.2,1.3-0.1s0.7,0.6,1.1,0.7s0.8-0.4,1.2-0.4s0.8,0.5,1.2,0.4s0.7-0.6,1.1-0.7
		s0.9,0.2,1.3,0.1s0.5-0.8,0.8-1s0.9,0,1.3-0.3s0.3-0.9,0.6-1.1s0.9-0.3,1.1-0.6s0.1-0.9,0.3-1.3s0.8-0.5,1-0.9s-0.2-0.9-0.1-1.3
		s0.6-0.7,0.7-1.1s-0.4-0.8-0.4-1.2s0.4-0.8,0.4-1.2s-0.6-0.7-0.7-1.1s0.2-0.9,0.1-1.3s-0.8-0.5-1-0.9s0-0.9-0.3-1.3
		s-0.9-0.3-1.1-0.6s-0.3-0.9-0.6-1.1s-0.9-0.1-1.3-0.3s-0.5-0.8-0.8-1s-0.9,0.2-1.3,0.1s-0.7-0.6-1.1-0.7s-0.8,0.4-1.2,0.4
		s-0.8-0.5-1.2-0.4s-0.7,0.6-1.1,0.7s-0.9-0.2-1.3-0.1s-0.5,0.8-0.9,1s-0.9,0-1.3,0.3s-0.3,0.9-0.6,1.1s-0.9,0.3-1.1,0.6
		s-0.1,0.9-0.3,1.3s-0.8,0.5-1,0.9s0.2,0.9,0.1,1.3s-0.7,0.7-0.7,1.1s0.4,0.8,0.4,1.2S104.9,277.4,104.9,277.7z M92.4,251.4
		c0-0.5-0.6-1-0.5-1.5s0.8-0.9,0.9-1.4s-0.3-1.1-0.1-1.6s0.9-0.6,1.2-1.1s0-1.2,0.3-1.6s1.1-0.4,1.4-0.7s0.3-1.1,0.7-1.4
		s1.1-0.1,1.6-0.3s0.6-1,1.1-1.2s1.1,0.2,1.6,0.1s0.8-0.8,1.3-0.9s1,0.5,1.5,0.5s1-0.6,1.5-0.5s0.9,0.8,1.3,0.9s1.2-0.3,1.6-0.1
		s0.6,0.9,1.1,1.2s1.2,0,1.6,0.3s0.4,1.1,0.7,1.4s1.1,0.3,1.4,0.7s0.1,1.1,0.3,1.6s1,0.6,1.2,1.1s-0.2,1.1-0.1,1.6s0.8,0.9,0.9,1.4
		s-0.5,1-0.5,1.5s0.6,1,0.5,1.5s-0.8,0.9-0.9,1.4s0.3,1.1,0.1,1.6c-0.2,0.5-0.9,0.6-1.2,1.1s0,1.2-0.3,1.6s-1.1,0.4-1.4,0.7
		s-0.3,1.1-0.7,1.4s-1.2,0.1-1.6,0.3s-0.6,1-1.1,1.2s-1.1-0.2-1.6-0.1s-0.8,0.8-1.3,0.9s-1-0.5-1.5-0.5s-1,0.6-1.5,0.5
		s-0.9-0.8-1.4-0.9s-1.2,0.3-1.6,0.1s-0.7-1-1.1-1.2s-1.2,0-1.6-0.3s-0.4-1.1-0.7-1.4s-1.1-0.3-1.4-0.7s-0.1-1.1-0.3-1.6
		s-1-0.6-1.2-1.1s0.2-1.1,0.1-1.6s-0.8-0.9-0.9-1.4S92.4,252,92.4,251.4z M91,296.2c0-0.5-0.6-1-0.5-1.5s0.8-0.9,0.9-1.4
		s-0.3-1.1-0.1-1.6s1-0.6,1.2-1.1s0-1.2,0.3-1.6s1.1-0.4,1.4-0.7s0.3-1.1,0.7-1.4s1.1-0.1,1.6-0.3s0.6-1,1.1-1.2s1.1,0.2,1.6,0.1
		s0.8-0.8,1.3-0.9s1,0.5,1.5,0.5s1-0.6,1.5-0.5s0.9,0.8,1.3,0.9s1.2-0.3,1.6-0.1s0.6,1,1.1,1.2s1.2,0,1.6,0.3s0.4,1.1,0.7,1.4
		s1.1,0.3,1.4,0.7s0.1,1.1,0.3,1.6s1,0.6,1.2,1.1s-0.2,1.1-0.1,1.6s0.8,0.9,0.9,1.4s-0.5,1-0.5,1.5s0.6,1,0.5,1.5s-0.8,0.9-0.9,1.4
		s0.3,1.1,0.1,1.6s-1,0.6-1.2,1.1s0,1.2-0.3,1.6s-1.1,0.4-1.4,0.7s-0.3,1.1-0.7,1.4s-1.2,0.1-1.6,0.3s-0.6,1-1.1,1.2
		s-1.1-0.2-1.6-0.1s-0.8,0.8-1.3,0.9s-1-0.5-1.5-0.5s-1,0.6-1.5,0.5s-0.9-0.8-1.3-0.9s-1.2,0.3-1.6,0.1s-0.7-1-1.1-1.2
		s-1.2,0-1.6-0.3s-0.4-1.1-0.7-1.4s-1.1-0.3-1.4-0.7s-0.1-1.1-0.3-1.6s-1-0.6-1.2-1.1s0.2-1.1,0.1-1.6s-0.8-0.9-0.9-1.4
		S91,296.7,91,296.2z M114,302.5c0-0.3-0.6-0.7-0.5-1s0.7-0.5,0.8-0.9s-0.4-0.8-0.3-1.1s0.8-0.3,1-0.6s-0.2-0.9,0-1.2
		s0.9-0.1,1.1-0.3s0.1-0.9,0.3-1.1s0.9,0.1,1.2,0s0.3-0.8,0.6-1s0.8,0.3,1.1,0.3s0.5-0.7,0.8-0.8s0.7,0.5,1,0.5s0.7-0.6,1-0.5
		s0.5,0.7,0.9,0.8s0.8-0.4,1.1-0.3s0.3,0.8,0.6,1s0.9-0.1,1.2,0.1s0.1,0.9,0.3,1.1s0.9,0.1,1.1,0.3s-0.1,0.9,0.1,1.2s0.9,0.3,1,0.6
		s-0.3,0.8-0.3,1.1s0.7,0.5,0.8,0.9s-0.5,0.7-0.5,1s0.6,0.7,0.5,1s-0.7,0.5-0.8,0.9s0.4,0.8,0.3,1.1s-0.8,0.3-1,0.6s0.2,0.9-0.1,1.1
		s-0.9,0.1-1.1,0.4s-0.1,0.9-0.3,1.1s-0.9-0.1-1.2,0s-0.3,0.9-0.6,1s-0.8-0.3-1.1-0.3s-0.5,0.7-0.9,0.8s-0.7-0.5-1-0.5
		s-0.7,0.6-1,0.5s-0.5-0.7-0.8-0.8s-0.8,0.4-1.1,0.3s-0.3-0.8-0.6-1s-0.9,0.1-1.2,0s-0.1-0.9-0.3-1.1s-0.9-0.1-1.1-0.4
		s0.1-0.9,0-1.1s-0.8-0.3-1-0.6s0.3-0.8,0.3-1.1s-0.7-0.5-0.8-0.9S114,302.9,114,302.5L114,302.5z M89.7,211.1
		c0-0.5-0.6-1.1-0.5-1.5s0.8-0.9,0.9-1.4s-0.3-1.1-0.1-1.6s1-0.6,1.2-1.1s0-1.2,0.3-1.6s1.1-0.4,1.4-0.7s0.3-1.1,0.7-1.4
		s1.1-0.1,1.6-0.3s0.6-1,1.1-1.2s1.1,0.2,1.6,0.1s0.8-0.8,1.3-0.9s1,0.5,1.5,0.5s1-0.6,1.5-0.5s0.9,0.8,1.3,0.9s1.2-0.3,1.6-0.1
		s0.6,0.9,1.1,1.2s1.2,0,1.6,0.3s0.4,1.1,0.7,1.4s1.1,0.3,1.4,0.7s0.1,1.1,0.3,1.6s1,0.6,1.2,1.1s-0.2,1.1-0.1,1.6s0.8,0.9,0.9,1.4
		s-0.5,1-0.5,1.5s0.6,1,0.5,1.5s-0.8,0.9-0.9,1.4s0.3,1.1,0.1,1.6s-1,0.6-1.2,1.1s0,1.2-0.3,1.6s-1.1,0.4-1.4,0.7s-0.3,1.1-0.7,1.4
		s-1.1,0.1-1.6,0.3s-0.6,1-1.1,1.2s-1.1-0.2-1.6-0.1s-0.8,0.8-1.3,0.9s-1-0.5-1.5-0.5s-1,0.6-1.5,0.5s-0.9-0.8-1.3-0.9
		s-1.2,0.3-1.6,0.1s-0.7-0.9-1.1-1.2s-1.2,0-1.6-0.3s-0.4-1.1-0.7-1.4s-1.1-0.3-1.4-0.7s-0.1-1.1-0.3-1.6s-1-0.6-1.2-1.1
		s0.2-1.1,0.1-1.6s-0.8-0.9-0.9-1.4S89.7,211.6,89.7,211.1z M69.3,231.4c0-0.5-0.6-1-0.5-1.5s0.8-0.9,0.9-1.4s-0.3-1.1-0.1-1.6
		s1-0.6,1.2-1.1s0-1.2,0.3-1.6s1.1-0.4,1.4-0.7s0.3-1.1,0.7-1.4s1.1-0.1,1.6-0.3s0.6-1,1.1-1.2s1.1,0.2,1.6,0.1s0.8-0.8,1.3-0.9
		s1,0.5,1.5,0.5s1-0.6,1.5-0.5s0.9,0.8,1.3,0.9s1.2-0.3,1.6-0.1s0.6,0.9,1.1,1.2s1.2,0,1.6,0.3s0.4,1.1,0.7,1.4s1.1,0.3,1.4,0.7
		s0.1,1.1,0.3,1.6s1,0.6,1.2,1.1s-0.2,1.1-0.1,1.6s0.8,0.9,0.9,1.4s-0.5,1-0.5,1.5s0.6,1.1,0.5,1.5s-0.8,0.9-0.9,1.4
		s0.3,1.1,0.1,1.6s-1,0.6-1.2,1.1s0,1.2-0.3,1.6s-1.1,0.4-1.4,0.7s-0.3,1.1-0.7,1.4s-1.1,0.1-1.6,0.3s-0.6,1-1.1,1.2
		s-1.1-0.2-1.6-0.1S82.5,243,82,243s-1-0.5-1.5-0.5s-1,0.6-1.5,0.5s-0.9-0.8-1.3-0.9s-1.2,0.3-1.6,0.1s-0.7-0.9-1.1-1.2
		s-1.2,0-1.6-0.3s-0.4-1.1-0.7-1.4s-1.1-0.3-1.4-0.7s-0.1-1.1-0.3-1.6s-1-0.6-1.2-1.1s0.2-1.1,0.1-1.6s-0.8-0.9-0.9-1.4
		S69.3,231.9,69.3,231.4z"/>
</g>
<g id="freepik--Character--inject-2">
	<path class="st3" d="M186.8,364.8l-31.7-1.2c-1.3-0.1-2.4,0.9-2.4,2.2c0,0.1,0,0.2,0,0.3c0,0.6,0.4,1,1,1c0.1,0,0.1,0,0.1,0
		c1.2,0,2.4-0.2,3.5-0.8l25,7.5C182.3,373.8,190.5,375.8,186.8,364.8z"/>
	<path class="st3" d="M185.5,337.8v29.5l-43.3,22.5c0,0-3.3,4.5,0.5,5c2.2,0.5,4.4-0.8,4.9-3c0.1-0.2,0.1-0.5,0.1-0.7
		c0,0,47-14.3,48-14.3s45.5,12,45.5,12s-1.8,2,1.5,3s3.5-3,2.5-4.5s-48.5-22-48.5-22v-26.8L185.5,337.8z"/>
	<path class="st13" d="M253.9,273.4c-2.2-0.3-4.2-1-6.1-2.1c-3.7-2.1-7.2-4.5-10.4-7.3c-8.3-7-16.3-21.5-23.3-29.3s-20.5-12-39.8-10
		s-29,9.8-32.8,19.8s-4.3,19.5-8.3,28.2s-12.5,12-11,21s10.3,23.8,28.3,35.3s39.3,15.8,63,13.3s33.5-12.8,41.8-24.8s9.3-26.3,8-33.8
		C262.2,277.4,257.9,274.1,253.9,273.4z"/>
	<path class="st12" d="M162.7,237.4c-4,1.8-7.6,4.2-10.7,7.3c-8.8,8.5-5,20.3-7.8,31c-1,3.7-2.4,7.3-4.2,10.7
		c0,0,3.4,21.4,17.2,29.9s36,14.2,54.7,10.7s28.7-13.4,33.3-21.8s2.6-22.2-9.2-30.2s-19.5-24.1-30.2-31.8
		C193,234.1,176.4,231.4,162.7,237.4z"/>
	<path class="st4" d="M257.5,274.8c-0.9,0-1.9,0.1-2.8,0.2c0,0-5.5-0.3-9,8.5s-1,18.5-5.5,25.5s-8,7.8-36.8,8s-38.8,5.3-50.3-9.8
		s-7-22.5-16.5-26c-4.7-1.7-7.7-1.1-10,0.6c-3,3.5-5.4,6.8-4.5,11.9c1.5,9,10.3,23.8,28.3,35.3s39.3,15.8,63,13.3
		s33.5-12.8,41.8-24.8c8.2-12,9.2-26.3,8-33.8C262.8,280.1,260.7,276.8,257.5,274.8z"/>
	<g>
		<defs>
			<path id="SVGID_3_" d="M257.5,274.8c-0.9,0-1.9,0.1-2.8,0.2c0,0-5.5-0.3-9,8.5s-1,18.5-5.5,25.5s-8,7.8-36.8,8
				s-38.8,5.3-50.3-9.8s-7-22.5-16.5-26c-4.7-1.7-7.7-1.1-10,0.6c-3,3.5-5.4,6.8-4.5,11.9c1.5,9,10.3,23.8,28.3,35.3
				s39.3,15.8,63,13.3s33.5-12.8,41.8-24.8c8.2-12,9.2-26.3,8-33.8C262.8,280.1,260.7,276.8,257.5,274.8z"/>
		</defs>
		<clipPath id="SVGID_4_">
			<use xlink:href="#SVGID_3_"  style="overflow:visible;"/>
		</clipPath>
		<g class="st14">
			<path class="st12" d="M257.5,274.8c-0.9,0-1.9,0.1-2.8,0.2c0,0-5.5-0.3-9,8.5s-1,18.5-5.5,25.5s-8,7.8-36.8,8s-38.8,5.3-50.3-9.8
				s-7-22.5-16.5-26c-4.7-1.7-7.7-1.1-10,0.6c-3,3.5-5.4,6.8-4.5,11.9c1.5,9,10.3,23.8,28.3,35.3s39.3,15.8,63,13.3
				s33.5-12.8,41.8-24.8c8.2-12,9.2-26.3,8-33.8C262.8,280.1,260.7,276.8,257.5,274.8z"/>
		</g>
	</g>
	<path class="st8" d="M257.5,274.8c-0.9,0-1.9,0.1-2.8,0.2c0,0-5.5-0.3-9,8.5s-1,18.5-5.5,25.5s-8,7.8-36.8,8s-38.8,5.3-50.3-9.8
		s-7-22.5-16.5-26c-4.7-1.7-7.7-1.1-10,0.6c-3,3.5-5.4,6.8-4.5,11.9c1.5,9,10.3,23.8,28.3,35.3s39.3,15.8,63,13.3
		s33.5-12.8,41.8-24.8c8.2-12,9.2-26.3,8-33.8C262.8,280.1,260.7,276.8,257.5,274.8z"/>
	<path class="st3" d="M173,265c0,0-11.5,12.5-14.8,24.5s2,25.3,11.3,28.5s22.8-1.3,29-3.8s15.5,2,25.8,2.3s11.8-20.2,9.3-32.5
		s-13.5-23.3-24.3-25S178.5,258.3,173,265z"/>
	<path class="st0" d="M211.3,188c0,0,9.9,4.9,14.8,6.2s16.1,1.3,16.6,5.4s-1.7,26.5-3,33.8s-1.5,18.1-0.8,20.9s3,7.3,0.4,11.8
		s-4.1,10.3-10.1,9.3s-7.5-5.2-7.5-5.2l-36.4,4.5c0,0-2.8-14.8-6-27.8s-9.7-31.8-9.1-40.7s12.1-14.6,20.2-17.2S211.3,188,211.3,188z
		"/>
	<g>
		<defs>
			<path id="SVGID_5_" d="M211.3,188c0,0,9.9,4.9,14.8,6.2s16.1,1.3,16.6,5.4s-1.7,26.5-3,33.8s-1.5,18.1-0.8,20.9s3,7.3,0.4,11.8
				s-4.1,10.3-10.1,9.3s-7.5-5.2-7.5-5.2l-36.4,4.5c0,0-2.8-14.8-6-27.8s-9.7-31.8-9.1-40.7s12.1-14.6,20.2-17.2
				S211.3,188,211.3,188z"/>
		</defs>
		<clipPath id="SVGID_6_">
			<use xlink:href="#SVGID_5_"  style="overflow:visible;"/>
		</clipPath>
		<g class="st15">
			<path class="st12" d="M238.4,212.4c-0.9,3-5.3,13.9-5.3,13.9s1.7-10,2.9-18s1.4-7.1-2.3-7.1s-10.3-3.1-12.6-4.3s-1.1,1.4-3.4-0.3
				s-5.7-7.1-5.7-7.1c-6.3-1.4-31.4,1.7-33.7,8.9c-1.5,4.8-0.8,29.4,1,48.1l0.1,0.5c2.2,8.9,4.1,18.6,5.2,23.8
				c1,1.4,2.2,2.6,3.6,3.6l33.3-4.1c4.1-4.5,7.4-10.7,8.5-12c1.3-1.5,5.4-4.3,5.7-6.9s-1.1-20.3,0.3-26.6
				C237.1,220,238,214.4,238.4,212.4z M230.3,241.4c-3.7,4.9-13.7,1.4-19.4-0.6s-10.9,4-17.1,2.6s1.4-10.6,9.4-10.9s6-0.6,13.1-9.1
				s11.4-0.9,14.3,5.7C232.2,233,232.1,237.5,230.3,241.4L230.3,241.4z"/>
			<path class="st8" d="M238.8,199.8c0,0-0.2,8.8-1.7,13.4s-4.1,12.9-4.1,17.6s0.9,11.4-0.6,15.7s-8.2,11-8.2,17.5"/>
		</g>
	</g>
	<path class="st8" d="M211.3,188c0,0,9.9,4.9,14.8,6.2s16.1,1.3,16.6,5.4s-1.7,26.5-3,33.8s-1.5,18.1-0.8,20.9s3,7.3,0.4,11.8
		s-4.1,10.3-10.1,9.3s-7.5-5.2-7.5-5.2l-36.4,4.5c0,0-2.8-14.8-6-27.8s-9.7-31.8-9.1-40.7s12.1-14.6,20.2-17.2S211.3,188,211.3,188z
		"/>
	<path class="st0" d="M182.4,234.1c0,0,1.1,13.3,2.2,19.2c0.7,3.5,1.1,6.9,1.3,10.5c0,0,4.5-0.9,5.4,2.6c1,4.2-0.5,8.7-3.9,11.4
		c-3.7,2.8-8.8,4.7-12.5,3.5s-5-10.5-5-16.3s0-13.3-1.7-17.6S171.4,229.3,182.4,234.1z"/>
	<g>
		<defs>
			<path id="SVGID_7_" d="M182.4,234.1c0,0,1.1,13.3,2.2,19.2c0.7,3.5,1.1,6.9,1.3,10.5c0,0,4.5-0.9,5.4,2.6c1,4.2-0.5,8.7-3.9,11.4
				c-3.7,2.8-8.8,4.7-12.5,3.5s-5-10.5-5-16.3s0-13.3-1.7-17.6S171.4,229.3,182.4,234.1z"/>
		</defs>
		<clipPath id="SVGID_8_">
			<use xlink:href="#SVGID_7_"  style="overflow:visible;"/>
		</clipPath>
		<g class="st16">
			<path class="st12" d="M186.7,269.4c-2.7,0.6-8.8,1.5-9.4-0.9s3.4-5.2,3.4-5.2l3.2,0.3v-2.1c0,0-1.5-12.4-3-17s-9.7,0-12.7,3.1
				c1.7,4.3,1.7,11.8,1.7,17.5s1.3,15.1,5,16.3s8.8-0.8,12.5-3.5c2-1.5,3.3-3.7,3.9-6.1C190.3,270.1,188.5,269.2,186.7,269.4z"/>
		</g>
	</g>
	<path class="st8" d="M182.4,234.1c0,0,1.1,13.3,2.2,19.2c0.7,3.5,1.1,6.9,1.3,10.5c0,0,4.5-0.9,5.4,2.6c1,4.2-0.5,8.7-3.9,11.4
		c-3.7,2.8-8.8,4.7-12.5,3.5s-5-10.5-5-16.3s0-13.3-1.7-17.6S171.4,229.3,182.4,234.1z"/>
	<path class="st8" d="M186.9,264.4c-2.1-0.2-4.1-0.6-6.2-1.1c-3.9-0.9-6.4,0.9-7.1,6.2"/>
	<path class="st3" d="M192.9,196c0,0-0.6,8.2-1.9,15.5c-0.7,4.2-2.2,8.3-4.3,12c0,0,0-16.6-2.6-24.6s-1.7-13.8,2.2-12
		S192.9,196,192.9,196z"/>
	<path class="st17" d="M190.8,196.6c-0.3,3.4-0.3,6.9,0,10.3c0.3,2.7,0.8,5.4,1.5,8l5.2-5.4l-2.2,6.5l11.7,7.5l7.3-11.2l-4.3-4.9
		c0,0,6.7,3.7,7.3,3.6s-0.9-9.3-4.1-14.9s-12.1-9-15.1-8S190.2,193.8,190.8,196.6z"/>
	<path class="st4" d="M197,202.8c0,0,6,17.7,8.6,17.2s3.9-19.6,3.9-19.6C205.9,202.8,201.3,203.7,197,202.8z"/>
	<g>
		<defs>
			<path id="SVGID_9_" d="M197,202.8c0,0,6,17.7,8.6,17.2s3.9-19.6,3.9-19.6C205.9,202.8,201.3,203.7,197,202.8z"/>
		</defs>
		<clipPath id="SVGID_10_">
			<use xlink:href="#SVGID_9_"  style="overflow:visible;"/>
		</clipPath>
		<g class="st18">
			<path class="st0" d="M197,202.8c0,0,6,17.7,8.6,17.2s3.9-19.6,3.9-19.6C205.9,202.8,201.3,203.7,197,202.8z"/>
			<path class="st2" d="M197,202.8c0,0,6,17.7,8.6,17.2s3.9-19.6,3.9-19.6C205.9,202.8,201.3,203.7,197,202.8z"/>
		</g>
	</g>
	<path class="st8" d="M197,202.8c0,0,6,17.7,8.6,17.2s3.9-19.6,3.9-19.6C205.9,202.8,201.3,203.7,197,202.8z"/>
	<path class="st4" d="M181.6,185.8c0,0,6.7,12,11.8,16.1c4.8,3.8,12.1,5.4,15.7,1.1s4.5-14,4.3-20.2s-4.7-10.3-9.7-15.3
		s-12.7-11.6-17.7-8.2S180,181.9,181.6,185.8z"/>
	<g>
		<defs>
			<path id="SVGID_11_" d="M181.6,185.8c0,0,6.7,12,11.8,16.1c4.8,3.8,12.1,5.4,15.7,1.1s4.5-14,4.3-20.2s-4.7-10.3-9.7-15.3
				s-12.7-11.6-17.7-8.2S180,181.9,181.6,185.8z"/>
		</defs>
		<clipPath id="SVGID_12_">
			<use xlink:href="#SVGID_11_"  style="overflow:visible;"/>
		</clipPath>
		<g class="st19">
			<path class="st0" d="M209.1,203c0.1-0.1,0.2-0.3,0.3-0.4c-1.9,0.8-3.9,1.2-6,1.4c-6.7,0.3-11-5.8-11-5.8s-0.6-0.9-4.1-7.3
				s-2.4-24.2-2.4-24.2s2.6,3.5,9.9,5.2c4.2,1,8.5,1.7,12.8,2l-0.3-1.7c-1.4-1.6-3-3.1-4.7-4.8c-5-5-12.7-11.6-17.7-8.2
				s-6,22.6-4.3,26.5c0,0,6.7,12,11.8,16.1C198.2,205.6,205.6,207.3,209.1,203z"/>
			<path class="st2" d="M209.1,203c0.1-0.1,0.2-0.3,0.3-0.4c-1.9,0.8-3.9,1.2-6,1.4c-6.7,0.3-11-5.8-11-5.8s-0.6-0.9-4.1-7.3
				s-2.4-24.2-2.4-24.2s2.6,3.5,9.9,5.2c4.2,1,8.5,1.7,12.8,2l-0.3-1.7c-1.4-1.6-3-3.1-4.7-4.8c-5-5-12.7-11.6-17.7-8.2
				s-6,22.6-4.3,26.5c0,0,6.7,12,11.8,16.1C198.2,205.6,205.6,207.3,209.1,203z"/>
			<path class="st8" d="M188.9,184.5c0,0,4.3,1.1,6-1.5"/>
			<path class="st8" d="M203.5,181.1c0,0,4.1,1.1,5.8-2"/>
			<path class="st8" d="M185.9,180.7c2.1-1.9,5-2.7,7.8-2.1"/>
			<path class="st8" d="M201.8,177.6c0,0,1.7-3.2,7.1-2.6"/>
			<path class="st8" d="M199.2,190.6c0,0,2.8,1.1,3.9-1.3"/>
			<path class="st8" d="M199,195.3c0,0,4.9,0.6,6.9-2.2"/>
		</g>
	</g>
	<path class="st8" d="M181.6,185.8c0,0,6.7,12,11.8,16.1c4.8,3.8,12.1,5.4,15.7,1.1s4.5-14,4.3-20.2s-4.7-10.3-9.7-15.3
		s-12.7-11.6-17.7-8.2S180,181.9,181.6,185.8z"/>
	<path class="st13" d="M186.5,271.1c-0.1-2.3,0-4.5,0.4-6.7c0.6-3,1.7-4.3,1.7-7.6s0.2-4.7,2.4-4.7s6.5,0.2,6.7,1.7s0.4,2.4-0.6,2.2
		s-4.9-0.4-4.9-0.4l-0.6,1.5c1.8,0.6,3.6,1.3,5.4,2.1c0.9,0.6,1.1,4.7,1.1,6.9c0.2,2.1-1,4-3,4.7c-2.1,0.8-3.9-1.9-3.9-1.9
		s0.4,2.8-1.7,3.7S185.9,272.2,186.5,271.1z"/>
	<path class="st13" d="M195,247.1l-3.3,28.6c-0.2,1.5,0.9,2.8,2.3,2.9c0.1,0,0.3,0,0.4,0l25.2-1.1c1.1-0.1,2.1-0.8,2.4-1.9l7.9-28
		c0.4-1.4-0.4-2.9-1.8-3.3c-0.2-0.1-0.5-0.1-0.8-0.1l-29.8,0.5C196.2,244.7,195.1,245.8,195,247.1z"/>
	<path class="st12" d="M196.3,248.3l-3,26.3c-0.2,1.3,0.8,2.6,2.1,2.7c0.1,0,0.3,0,0.4,0l23.2-1c1.1,0,2-0.8,2.2-1.8l7.2-25.7
		c0.4-1.3-0.4-2.6-1.7-3c-0.2-0.1-0.5-0.1-0.7-0.1l-27.4,0.4C197.5,246.1,196.4,247,196.3,248.3z"/>
	<line class="st20" x1="195.5" y1="254.8" x2="193.3" y2="274.5"/>
	<path class="st20" d="M200.3,246.1h-1.6c-1.2,0-2.2,0.9-2.4,2.2l-0.4,3.1"/>
	<path class="st13" d="M233.9,264.2c0,0-3-4.5-5.2-4.5s-12.3,5.8-14.9,7.5s0.2,2.4,0.2,2.4c-0.3,0.8-0.1,1.7,0.6,2.2
		c0.5,0.6,1.2,1,2.1,1.1c0.4,0.6,0.9,1,1.5,1.3c1.1,0.4,2.2,0.6,3.4,0.6c0,0,0.9,0.8,4.1,0.8s6.2-0.2,8-2.4S235.2,268.7,233.9,264.2
		z"/>
	<path class="st8" d="M214,269.6c0,0,12-2,14.2-4.3"/>
	<path class="st8" d="M216.6,273c0,0,9.7-1.5,12.7-3.2"/>
	<path class="st8" d="M221.4,274.9c0,0,6-0.4,8.6-1.5"/>
	<path class="st21" d="M168,283.8c0,0,38.8-5.3,54.5-3.5"/>
	<path class="st13" d="M219.3,337.5c0,0,10.8-4.5,28,0c0,0-1.8,2.8-12.8,5S219.3,337.5,219.3,337.5z"/>
	<path class="st4" d="M220.1,280.3c-0.7,0.4-1.4,0.7-2.1,1c-1.8,0.6-5.5,2.7-7,8.5c-2,7.8,8,28.8,9.3,38c0.5,4.3,1.2,8.6,2.3,12.8
		c0,0,3.8,1,10,2s8.5-2.3,8.5-2.3s2.8-23-1.3-37s-4.8-20.5-10-22.5C226.1,279.4,221.8,279.3,220.1,280.3z"/>
	<g>
		<defs>
			<path id="SVGID_13_" d="M220.1,280.3c-0.7,0.4-1.4,0.7-2.1,1c-1.8,0.6-5.5,2.7-7,8.5c-2,7.8,8,28.8,9.3,38
				c0.5,4.3,1.2,8.6,2.3,12.8c0,0,3.8,1,10,2s8.5-2.3,8.5-2.3s2.8-23-1.3-37s-4.8-20.5-10-22.5C226.1,279.4,221.8,279.3,220.1,280.3
				z"/>
		</defs>
		<clipPath id="SVGID_14_">
			<use xlink:href="#SVGID_13_"  style="overflow:visible;"/>
		</clipPath>
		<g class="st22">
			<path class="st0" d="M239.7,343c0,0,1.2-22.7-5.2-41.5s-11.9-18.3-16.6-14.5s-4.9,12.2-2.3,20.6s7,17.7,7.6,25.5
				s-0.3,13.1,2.9,13.4S239.4,348.8,239.7,343z"/>
			<path class="st2" d="M239.7,343c0,0,1.2-22.7-5.2-41.5s-11.9-18.3-16.6-14.5s-4.9,12.2-2.3,20.6s7,17.7,7.6,25.5
				s-0.3,13.1,2.9,13.4S239.4,348.8,239.7,343z"/>
		</g>
	</g>
	<path class="st8" d="M220.1,280.3c-0.7,0.4-1.4,0.7-2.1,1c-1.8,0.6-5.5,2.7-7,8.5c-2,7.8,8,28.8,9.3,38c0.5,4.3,1.2,8.6,2.3,12.8
		c0,0,3.8,1,10,2s8.5-2.3,8.5-2.3s2.8-23-1.3-37s-4.8-20.5-10-22.5C226.1,279.4,221.8,279.3,220.1,280.3z"/>
	<path class="st0" d="M219.3,337.5c0,0,17.3,4.3,28,0c0,0-6.3,29-10.8,41.8s-4.3,18.8-5,25.8s-5,19.3-10.5,21.3s-6-7.5-2.3-16.8
		s5.3-20.5,3.8-34S219.3,337.5,219.3,337.5z"/>
	<g>
		<defs>
			<path id="SVGID_15_" d="M219.3,337.5c0,0,17.3,4.3,28,0c0,0-6.3,29-10.8,41.8s-4.3,18.8-5,25.8s-5,19.3-10.5,21.3
				s-6-7.5-2.3-16.8s5.3-20.5,3.8-34S219.3,337.5,219.3,337.5z"/>
		</defs>
		<clipPath id="SVGID_16_">
			<use xlink:href="#SVGID_15_"  style="overflow:visible;"/>
		</clipPath>
		<g class="st23">
			<path class="st12" d="M241.7,348.8c1.1-3.4,2-6.8,2.5-10.3c-6.8,1.6-15.2,0.8-20.3,0c0.6,7.9,1.9,29.9,1.2,44.6
				c-0.8,17-4.9,23.7-8,31.3c-0.9,3-1.1,6.1-0.5,9.1c1.6,1.4,4.6,0.8,7.6-1.8c5.5-4.6,6.7-21.2,7.3-30.2S239.1,356.4,241.7,348.8z"
				/>
		</g>
	</g>
	<path class="st8" d="M219.3,337.5c0,0,17.3,4.3,28,0c0,0-6.3,29-10.8,41.8s-4.3,18.8-5,25.8s-5,19.3-10.5,21.3s-6-7.5-2.3-16.8
		s5.3-20.5,3.8-34S219.3,337.5,219.3,337.5z"/>
	<polygon class="st17" points="237,374 236.8,397.5 238.8,396.5 	"/>
	<polygon class="st17" points="237.5,371.5 239.5,394.3 241.3,393 	"/>
	<path class="st13" d="M212,339c0,0-8.3-4.3-26.5-1.3c2.6,3.6,6.4,6.2,10.8,7.3C203.5,346.8,212,339,212,339z"/>
	<path class="st4" d="M207,282c0,0-9-3.8-15.5,2.3s-4.5,19-4,21.5s1,5.3,1,5.3l1.3,31.8l17.5,0.3c0,0,3.3-25.3,5.8-36.3
		S215.5,287.3,207,282z"/>
	<g>
		<defs>
			<path id="SVGID_17_" d="M207,282c0,0-9-3.8-15.5,2.3s-4.5,19-4,21.5s1,5.3,1,5.3l1.3,31.8l17.5,0.3c0,0,3.3-25.3,5.8-36.3
				S215.5,287.3,207,282z"/>
		</defs>
		<clipPath id="SVGID_18_">
			<use xlink:href="#SVGID_17_"  style="overflow:visible;"/>
		</clipPath>
		<g class="st24">
			<path class="st0" d="M205.4,289c-10.2-3.5-12.5,5.8-13.4,13.9s-0.9,37.5-0.6,39.2c0.1,0.3,0.2,0.5,0.4,0.7l15.4,0.2
				c0,0,3.3-25.3,5.8-36.3c0.2-0.8,0.3-1.5,0.5-2.3C213.6,299.8,212.6,291.4,205.4,289z"/>
			<path class="st2" d="M205.4,289c-10.2-3.5-12.5,5.8-13.4,13.9s-0.9,37.5-0.6,39.2c0.1,0.3,0.2,0.5,0.4,0.7l15.4,0.2
				c0,0,3.3-25.3,5.8-36.3c0.2-0.8,0.3-1.5,0.5-2.3C213.6,299.8,212.6,291.4,205.4,289z"/>
		</g>
	</g>
	<path class="st8" d="M207,282c0,0-9-3.8-15.5,2.3s-4.5,19-4,21.5s1,5.3,1,5.3l1.3,31.8l17.5,0.3c0,0,3.3-25.3,5.8-36.3
		S215.5,287.3,207,282z"/>
	<path class="st0" d="M185.5,337.8c0,0,3.3,24,6.5,35s6.5,24,6.5,37s10.5,18.5,13.3,16s0.5-15-1.8-21.5s-5.3-22.8-4.3-31.3
		s6.2-34,6.2-34S194.5,340,185.5,337.8z"/>
	<g>
		<defs>
			<path id="SVGID_19_" d="M185.5,337.8c0,0,3.3,24,6.5,35s6.5,24,6.5,37s10.5,18.5,13.3,16s0.5-15-1.8-21.5s-5.3-22.8-4.3-31.3
				s6.2-34,6.2-34S194.5,340,185.5,337.8z"/>
		</defs>
		<clipPath id="SVGID_20_">
			<use xlink:href="#SVGID_19_"  style="overflow:visible;"/>
		</clipPath>
		<g class="st25">
			<path class="st12" d="M203.1,367.1c1.2-21.5,6.7-27.9,6.7-27.9l-0.5-0.1c-6.2,0.3-12.4,0.1-18.6-0.5c0.4,5.6,1.8,23.3,5,38.1
				c3.9,17.9,3.3,28.1,6.2,36.2s9,14.2,9,7.5S202,388.6,203.1,367.1z"/>
		</g>
	</g>
	<path class="st8" d="M185.5,337.8c0,0,3.3,24,6.5,35s6.5,24,6.5,37s10.5,18.5,13.3,16s0.5-15-1.8-21.5s-5.3-22.8-4.3-31.3
		s6.2-34,6.2-34S194.5,340,185.5,337.8z"/>
	<polygon class="st17" points="191.3,368.3 190.3,393 191.5,393.5 	"/>
	<polygon class="st17" points="192,369.3 193,394 195,392.3 	"/>
	<path class="st3" d="M187.1,162.1c0,0-5.1,16.6-1.5,30.8s1.9,30.1,1.5,38.8s-3.6,16.1-10.6,21.7s-16.6,4.7-23.7-0.2
		s-9.3-18.7-5.4-28.4s13.6-26.7,16.4-35.5s1.1-13.3,1.9-21.5s5.6-23.2,15.7-26.5s21.9-3.2,29.9,7.7s8.8,27.4,9.5,32.9s3,7.3,7.5,8.2
		s3.7,4.1,0.4,4.5s-12.1-1.9-14.5-5.1s-0.4-8.1-4.5-13S191.2,169.7,187.1,162.1z"/>
	<path class="st26" d="M183.2,226.8c0.1,7.1-0.4,13.1-2,16.5c-4.9,10.1-12,10-20.5,8.5"/>
	<path class="st26" d="M187.1,162.1c0,0-9.3,10.2-7.8,23.7c0.8,7.5,2.9,21.3,3.6,33.8"/>
	<path class="st26" d="M156.4,230.4c-2.5,2.3-4.1,0.9-4.1,0.9"/>
	<path class="st26" d="M165.3,185.3c0,0,2,22.5-3.5,36c-0.8,2.1-1.8,4-2.9,5.9"/>
	<path class="st26" d="M211.9,159.1c-3.3-3.5-7.9-5.6-12.7-5.9c-13-1-13.3,6-13.3,6s-5.2-11.5,13.3-12"/>
	<path class="st26" d="M216.3,165.8c-0.4-1.1-1-2.1-1.6-3.1"/>
</g>
</svg>
