<?xml version="1.0" encoding="utf-8"?>
<!-- Generator: Adobe Illustrator 23.0.3, SVG Export Plug-In . SVG Version: 6.00 Build 0)  -->
<svg version="1.1" xmlns="http://www.w3.org/2000/svg" xmlns:xlink="http://www.w3.org/1999/xlink" x="0px" y="0px"
	 viewBox="0 0 500 500" style="enable-background:new 0 0 500 500;" xml:space="preserve">
<style type="text/css">
	.st0{display:none;}
	.st1{display:inline;}
	.st2{fill:url(#SVGID_1_);}
	.st3{fill:url(#SVGID_2_);}
	.st4{fill:#FFFFFF;}
	.st5{fill:url(#SVGID_3_);}
	.st6{fill:url(#SVGID_4_);}
	.st7{fill:url(#SVGID_5_);}
	.st8{fill:url(#SVGID_6_);}
	.st9{fill:#E6E6E6;}
	.st10{fill:url(#SVGID_7_);}
	.st11{fill:#13D2BD;}
	.st12{fill:#FF9D3B;}
	.st13{fill:url(#SVGID_8_);}
	.st14{fill:#F2F2F2;}
	.st15{fill:url(#SVGID_9_);}
	.st16{fill:url(#SVGID_10_);}
	.st17{fill:url(#SVGID_11_);}
	.st18{fill:url(#SVGID_12_);}
	.st19{fill:#EDCACC;}
	.st20{fill:#FFD239;}
	.st21{fill:#E4AFB4;}
	.st22{fill:#422410;}
	.st23{fill:url(#SVGID_13_);}
	.st24{fill:url(#SVGID_14_);}
	.st25{fill:url(#SVGID_15_);}
	.st26{fill:url(#SVGID_16_);}
	.st27{fill:url(#SVGID_17_);}
	.st28{fill:url(#SVGID_18_);}
	.st29{fill:#EFCCA7;}
	.st30{fill:url(#SVGID_19_);}
	.st31{fill:url(#SVGID_20_);}
	.st32{fill:url(#SVGID_21_);}
	.st33{fill:url(#SVGID_22_);}
	.st34{fill:url(#SVGID_23_);}
	.st35{fill:url(#SVGID_24_);}
	.st36{fill:url(#SVGID_25_);}
	.st37{fill:url(#SVGID_26_);}
	.st38{opacity:5.000000e-02;}
	.st39{fill:url(#SVGID_27_);}
	.st40{fill:url(#SVGID_28_);}
	.st41{fill:url(#SVGID_29_);}
	.st42{fill:url(#SVGID_30_);}
</style>
<g id="BACKGROUND" class="st0">
	<g class="st1">
		<g>
			
				<radialGradient id="SVGID_1_" cx="250.0039" cy="233.746" r="302.4406" gradientTransform="matrix(0.9996 2.944681e-02 -2.444857e-02 0.8299 5.4671 32.0649)" gradientUnits="userSpaceOnUse">
				<stop  offset="0" style="stop-color:#F2F2F2"/>
				<stop  offset="0.262" style="stop-color:#F2F2F0"/>
				<stop  offset="0.4083" style="stop-color:#F3F0E8"/>
				<stop  offset="0.5261" style="stop-color:#F4EEDA"/>
				<stop  offset="0.6288" style="stop-color:#F5EAC6"/>
				<stop  offset="0.7216" style="stop-color:#F6E6AD"/>
				<stop  offset="0.8074" style="stop-color:#F8E08D"/>
				<stop  offset="0.8876" style="stop-color:#FBDA68"/>
				<stop  offset="0.9615" style="stop-color:#FDD23E"/>
				<stop  offset="1" style="stop-color:#FFCE25"/>
			</radialGradient>
			<path class="st2" d="M81.2,163.6c-8.4,15.7-13.1,33.4-13,50.9c0.1,21.5,6.9,42.9,19.1,60.5c13.5,19.3,32.8,33.4,52.6,45.7
				c19.2,11.9,37,25,54,39.9c16.5,14.5,33.2,29.1,52.9,38.8c19.4,9.6,43,14.6,64.1,7.7c22.9-7.4,36.7-30.9,41.4-53.3
				c3.7-17.6,5.5-36.4,18.8-50c6.3-6.5,13-12.6,20-18.4c14-11.6,26.1-25.9,33.5-42.6c6.7-14.9,9.5-31.7,6.9-47.9
				c-5.1-31.5-30.3-61.7-54.6-80.9c-22.3-17.6-52.6-25.3-80.5-19.6c-17.3,3.5-33,12.1-49.8,17.3c-28.3,8.8-53-2.5-81.3-2.8
				C129.4,108.5,97.6,132.7,81.2,163.6z"/>
		</g>
	</g>
</g>
<g id="OBJECTS">
	<g>
		<g>
			<g>
				<g>
					<g>
						<linearGradient id="SVGID_2_" gradientUnits="userSpaceOnUse" x1="318.803" y1="305.3201" x2="442.8035" y2="214.8198">
							<stop  offset="0" style="stop-color:#074C47"/>
							<stop  offset="0.274" style="stop-color:#0D8F82"/>
							<stop  offset="0.4988" style="stop-color:#11BFAD"/>
							<stop  offset="0.61" style="stop-color:#13D2BD"/>
						</linearGradient>
						<path class="st3" d="M321.3,322l6.3-1.8l3-0.8l10.1-2.8c1.8-2.9,4-5.3,6.5-7.3c0.9-0.7,1.8-1.4,2.8-2.1
							c6.5-4.4,14.4-6.9,21.9-9.7c2-0.7,4-1.5,5.9-2.4c0,0,0.1,0,0.1,0c11.8-5.1,24.8-12.3,29.6-25c1.6-4.2,2.1-8.7,1.7-13.1
							c0-0.3,0-0.6-0.1-0.8c-0.1-0.5-0.1-1.1-0.2-1.6c-1.1-8.1-4.3-16-10.6-20.2c-0.8-0.5-1.6-1-2.5-1.4c-2-0.9-4.2-1.5-6.7-1.7
							c-3.1-0.3-6.2,0-9.2,0.5c-1,0.2-1.9,0.4-2.8,0.6c-8.3,2.2-16.2,6.9-23.1,11.4c-1.8,1.2-3.5,2.4-5.2,3.8
							c-0.8,0.6-1.6,1.3-2.3,2c-2.8,2.5-5.3,5.2-7.7,8c-0.6,0.7-1.2,1.4-1.7,2.2c-2.7,3.5-5,7.2-7.1,11.2c-0.6,1.2-1.2,2.4-1.8,3.6
							C321.3,289.4,318.7,306.3,321.3,322z"/>
					</g>
					<path class="st4" d="M327.6,320.2l3-0.8c1.4-2.8,2.8-5.5,4.2-8.3c0.2,0.1,0.4,0.1,0.7,0c3.6-1,7.8-2.1,11.7-1.9
						c0.9-0.7,1.8-1.4,2.8-2.1c-4.5-1-9.6,0.2-13.9,1.3c1.7-3.4,3.4-6.9,4.9-10.5c1-2.4,2.2-4.7,3.6-6.9c3.6,4,9.9,4.9,14.9,5.6
						c4.1,0.5,8.3,0.7,12.4,0.8c2-0.7,4-1.5,5.9-2.4c-0.1,0-0.1,0-0.2,0c-5.3,0-10.6,0-15.8-0.5c-5-0.5-12.1-1.1-15.6-5.3
						c-0.1-0.1-0.1-0.2-0.2-0.2c3.9-5.8,8.9-10.9,13.5-16.2c2.7-3.1,5.3-6.3,7.9-9.4c6.5,4,16,1.6,22.8-0.2
						c6.5-1.7,12.8-4.2,19.2-6.3c0-0.3,0-0.6-0.1-0.8c-0.1-0.5-0.1-1.1-0.2-1.6c-5.8,2-11.5,4.2-17.4,5.8
						c-6.5,1.8-16.3,4.8-22.7,1.2c1.4-1.7,2.8-3.3,4.2-4.9c5.2-6,10.7-12,17-17c2.3-1.8,5.3-4,8.4-5.3c-0.8-0.5-1.6-1-2.5-1.4
						c-2.6,1.3-5,3-7,4.6c-6.1,4.7-11.4,10.3-16.4,16.2c0.6-4.1,2.3-8.2,3.7-12c1.2-3.3,2.5-6.6,3.9-9.9c-1,0.2-1.9,0.4-2.8,0.6
						c-1.2,2.8-2.3,5.7-3.3,8.6c-1.8,4.9-3.9,10.2-4,15.5c0,0.1,0,0.2,0,0.3c-1.1,1.4-2.3,2.7-3.4,4.1c-0.1,0.1-0.2,0.2-0.2,0.3
						c-3.1,3.8-6.3,7.6-9.5,11.3c-0.1,0.1-0.2,0.2-0.3,0.3c-3-3.9-4.6-9-5.8-13.7c-0.9-3.7-1.7-7.6-1.6-11.5c-0.8,0.6-1.6,1.3-2.3,2
						c0.2,3.4,0.8,6.9,1.7,10.1c1.3,5.2,3.2,10.6,6.5,14.9c-2.2,2.5-4.3,5-6.4,7.5c-3.2-8.2-6.4-16.3-9.5-24.5
						c-0.6,0.7-1.2,1.4-1.7,2.2c3.2,8.2,6.3,16.3,9.5,24.5c-3.1,4.1-5.8,8.4-8,13.3c-1.6-4.1-3.4-8-4.9-12.1
						c-1.7-4.7-3-9.5-3.7-14.5c-0.6,1.2-1.2,2.4-1.8,3.6c0.7,3.6,1.7,7.2,2.9,10.7c1.8,5,4,9.8,5.8,14.7c0.1,0.2,0.2,0.4,0.4,0.5
						C334.4,307.2,330.8,313.6,327.6,320.2z"/>
				</g>
				<g>
					<g>
						<linearGradient id="SVGID_3_" gradientUnits="userSpaceOnUse" x1="329.2906" y1="329.7257" x2="453.2907" y2="239.2256">
							<stop  offset="0" style="stop-color:#074C47"/>
							<stop  offset="8.558875e-02" style="stop-color:#0A7067"/>
							<stop  offset="0.1771" style="stop-color:#0D8E81"/>
							<stop  offset="0.2783" style="stop-color:#0FA797"/>
							<stop  offset="0.391" style="stop-color:#11BAA8"/>
							<stop  offset="0.5217" style="stop-color:#12C8B4"/>
							<stop  offset="0.6863" style="stop-color:#13D0BB"/>
							<stop  offset="0.9955" style="stop-color:#13D2BD"/>
						</linearGradient>
						<path class="st5" d="M300.4,293l4.8,4.5l2.3,2.2l7.6,7.2c3.4,0.1,6.6,0.8,9.6,1.8c1.1,0.4,2.1,0.8,3.2,1.3
							c7.1,3.3,13.3,8.8,19.5,13.8c1.7,1.3,3.3,2.6,5,3.9c0,0,0.1,0,0.1,0.1c10.4,7.5,23.3,15,36.6,12.6c4.4-0.8,8.5-2.7,12.1-5.2
							c0.2-0.2,0.5-0.3,0.7-0.5c0.4-0.3,0.8-0.6,1.3-1c6.4-5.1,11.5-11.9,11.9-19.5c0.1-1,0-1.9-0.1-2.9c-0.2-2.2-0.9-4.4-1.9-6.6
							c-1.3-2.8-3.1-5.3-5.2-7.6c-0.6-0.7-1.3-1.4-2-2.1c-6.1-6-14.2-10.4-21.6-14c-1.9-0.9-3.9-1.8-5.9-2.5c-0.9-0.4-1.9-0.7-2.9-1
							c-3.5-1.1-7.2-1.9-10.9-2.5c-0.9-0.1-1.8-0.3-2.7-0.4c-4.4-0.5-8.8-0.6-13.2-0.4c-1.3,0.1-2.7,0.2-4,0.3
							C328.5,276.3,312.6,282.8,300.4,293z"/>
					</g>
					<path class="st4" d="M305.2,297.5l2.3,2.2c3.1-0.3,6.2-0.5,9.2-0.7c0,0.2,0.1,0.4,0.3,0.6c2.7,2.6,5.8,5.6,7.6,9.1
						c1.1,0.4,2.1,0.8,3.2,1.3c-1.5-4.3-5.1-8.1-8.3-11.3c3.8-0.3,7.7-0.6,11.5-1.2c2.6-0.4,5.2-0.5,7.7-0.4
						c-1.6,5.1,0.8,11,2.9,15.7c1.7,3.8,3.6,7.5,5.7,11.1c1.7,1.3,3.3,2.6,5,3.9c0-0.1-0.1-0.1-0.1-0.2c-2.7-4.5-5.4-9.1-7.7-13.9
						c-2.2-4.6-5.2-11-3.5-16.1c0-0.1,0.1-0.2,0.1-0.3c7,0.4,13.9,2,20.8,3.3c4,0.7,8.1,1.3,12.2,1.9c-0.1,7.6,6.9,14.6,11.8,19.5
						c4.8,4.7,10.1,8.9,15.3,13.3c0.2-0.2,0.5-0.3,0.7-0.5c0.4-0.3,0.8-0.6,1.3-1c-4.7-4-9.5-7.7-13.9-12
						c-4.9-4.6-12.5-11.5-12.7-18.9c2.1,0.3,4.3,0.7,6.4,1.1c7.9,1.4,15.8,3,23.3,5.8c2.8,1.1,6.2,2.4,8.8,4.5c0.1-1,0-1.9-0.1-2.9
						c-2.4-1.5-5.1-2.7-7.5-3.6c-7.2-2.8-14.7-4.5-22.3-5.8c3.9-1.6,8.2-2.3,12.2-3c3.5-0.7,7-1.3,10.5-1.8c-0.6-0.7-1.3-1.4-2-2.1
						c-3,0.4-6.1,1-9.1,1.6c-5.1,1-10.8,1.9-15.4,4.5c-0.1,0.1-0.2,0.1-0.2,0.2c-1.8-0.3-3.5-0.6-5.3-0.8c-0.1,0-0.2-0.1-0.3-0.1
						c-4.9-0.7-9.7-1.5-14.6-2.4c-0.1,0-0.3-0.1-0.4-0.1c1.9-4.6,5.3-8.6,8.8-12c2.7-2.7,5.7-5.4,9-7.3c-0.9-0.4-1.9-0.7-2.9-1
						c-2.9,1.9-5.5,4.2-7.8,6.6c-3.8,3.8-7.5,8.2-9.5,13.2c-3.3-0.6-6.5-1.2-9.7-1.6c5.4-6.9,10.7-13.8,16.1-20.7
						c-0.9-0.1-1.8-0.3-2.7-0.4c-5.4,6.9-10.8,13.8-16.1,20.7c-5.1-0.6-10.2-0.7-15.5-0.1c2.7-3.4,5.2-7,7.9-10.4
						c3.2-3.9,6.7-7.4,10.5-10.6c-1.3,0.1-2.7,0.2-4,0.3c-2.7,2.4-5.3,5.1-7.7,8c-3.4,4.1-6.3,8.5-9.7,12.6
						c-0.2,0.2-0.2,0.4-0.3,0.6C319.9,296.7,312.5,296.9,305.2,297.5z"/>
				</g>
			</g>
		</g>
		<g>
			<g>
				<g>
					<g>
						
							<linearGradient id="SVGID_4_" gradientUnits="userSpaceOnUse" x1="75.7838" y1="237.9896" x2="199.7842" y2="147.4893" gradientTransform="matrix(-0.9769 -0.2135 -0.2135 0.9769 305.94 33.0325)">
							<stop  offset="0" style="stop-color:#074C47"/>
							<stop  offset="0.274" style="stop-color:#0D8F82"/>
							<stop  offset="0.4988" style="stop-color:#11BFAD"/>
							<stop  offset="0.61" style="stop-color:#13D2BD"/>
						</linearGradient>
						<path class="st6" d="M175.1,265.1l-5.8-3.1l-2.8-1.5l-9.3-4.9c-1.2-3.2-2.8-6-4.8-8.5c-0.7-0.9-1.5-1.8-2.3-2.6
							c-5.4-5.7-12.6-9.8-19.3-14.1c-1.8-1.2-3.6-2.3-5.3-3.6c0,0-0.1,0-0.1-0.1c-10.4-7.5-21.6-17.3-23.6-30.7
							c-0.6-4.4-0.2-8.9,1.1-13.2c0.1-0.3,0.2-0.5,0.3-0.8c0.2-0.5,0.3-1,0.5-1.5c2.8-7.7,7.6-14.7,14.7-17.5
							c0.9-0.4,1.8-0.6,2.8-0.8c2.1-0.5,4.4-0.6,6.9-0.3c3.1,0.4,6,1.3,8.9,2.5c0.9,0.4,1.8,0.8,2.6,1.2
							c7.6,3.9,14.4,10.2,20.1,16.1c1.5,1.5,2.9,3.1,4.2,4.8c0.6,0.8,1.3,1.6,1.8,2.4c2.2,3,4.1,6.2,5.8,9.5
							c0.4,0.8,0.8,1.6,1.2,2.5c1.8,4,3.4,8.1,4.5,12.4c0.4,1.3,0.7,2.6,1,3.9C182,233.2,181,250.4,175.1,265.1z"/>
					</g>
					<path class="st4" d="M169.3,262l-2.8-1.5c-0.7-3-1.5-6-2.3-9c-0.2,0-0.5,0-0.7-0.1c-3.3-1.7-7.2-3.7-11-4.4
						c-0.7-0.9-1.5-1.8-2.3-2.6c4.6,0,9.3,2.2,13.3,4.3c-0.9-3.7-1.8-7.5-2.5-11.3c-0.5-2.6-1.2-5.1-2-7.5
						c-4.3,3.1-10.7,2.7-15.8,2.3c-4.1-0.4-8.2-1.1-12.3-1.9c-1.8-1.2-3.6-2.3-5.3-3.6c0.1,0,0.1,0,0.2,0c5.2,1.2,10.3,2.3,15.6,2.9
						c5,0.6,12.1,1.5,16.4-1.8c0.1-0.1,0.2-0.1,0.3-0.2c-2.6-6.5-6.3-12.5-9.7-18.7c-2-3.6-3.8-7.3-5.7-10.9c-7.2,2.5-16-1.9-22.2-5
						c-6-3.1-11.6-6.8-17.4-10.3c0.1-0.3,0.2-0.5,0.3-0.8c0.2-0.5,0.3-1,0.5-1.5c5.2,3.2,10.4,6.5,15.8,9.4c5.9,3.2,14.9,8.2,22,6
						c-1-1.9-2-3.8-3-5.7c-3.8-7-7.9-14-12.9-20.2c-1.9-2.3-4.3-5.1-7.1-6.9c0.9-0.4,1.8-0.6,2.8-0.8c2.2,1.8,4.2,4,5.8,6
						c4.9,5.9,8.9,12.5,12.6,19.3c0.3-4.2-0.5-8.5-1-12.5c-0.5-3.5-1-7-1.7-10.5c0.9,0.4,1.8,0.8,2.6,1.2c0.5,3,1,6.1,1.4,9.1
						c0.7,5.2,1.6,10.8,0.6,16c0,0.1-0.1,0.2-0.1,0.3c0.8,1.6,1.6,3.2,2.5,4.7c0.1,0.1,0.1,0.2,0.2,0.3c2.3,4.4,4.5,8.8,6.9,13
						c0.1,0.1,0.1,0.3,0.2,0.4c3.7-3.2,6.4-7.8,8.6-12.1c1.7-3.4,3.3-7.1,4.1-10.9c0.6,0.8,1.3,1.6,1.8,2.4
						c-0.9,3.3-2.3,6.5-3.8,9.5c-2.4,4.8-5.4,9.7-9.6,13.2c1.6,2.9,3.2,5.8,4.6,8.7c4.9-7.3,9.7-14.6,14.5-21.9
						c0.4,0.8,0.8,1.6,1.2,2.5c-4.8,7.3-9.7,14.6-14.5,21.9c2.1,4.7,3.9,9.5,5,14.7c2.4-3.6,5-7.1,7.4-10.8c2.7-4.2,5-8.7,6.7-13.3
						c0.4,1.3,0.7,2.6,1,3.9c-1.5,3.4-3.1,6.6-5.1,9.8c-2.8,4.5-6,8.7-8.9,13.1c-0.1,0.2-0.3,0.3-0.5,0.4
						C165.5,247.8,167.6,254.9,169.3,262z"/>
				</g>
				<g>
					<g>
						
							<linearGradient id="SVGID_5_" gradientUnits="userSpaceOnUse" x1="86.2714" y1="262.3952" x2="210.2714" y2="171.8952" gradientTransform="matrix(-0.9769 -0.2135 -0.2135 0.9769 305.94 33.0325)">
							<stop  offset="0" style="stop-color:#074C47"/>
							<stop  offset="8.558875e-02" style="stop-color:#0A7067"/>
							<stop  offset="0.1771" style="stop-color:#0D8E81"/>
							<stop  offset="0.2783" style="stop-color:#0FA797"/>
							<stop  offset="0.391" style="stop-color:#11BAA8"/>
							<stop  offset="0.5217" style="stop-color:#12C8B4"/>
							<stop  offset="0.6863" style="stop-color:#13D0BB"/>
							<stop  offset="0.9955" style="stop-color:#13D2BD"/>
						</linearGradient>
						<path class="st7" d="M201.7,241.3l-5.6,3.4l-2.7,1.6l-9,5.4c-3.4-0.7-6.6-0.7-9.8-0.3c-1.1,0.2-2.3,0.4-3.4,0.6
							c-7.6,1.7-14.8,5.8-22,9.3c-1.9,0.9-3.8,1.9-5.8,2.7c0,0-0.1,0-0.1,0c-11.8,5.1-25.9,9.7-38.5,4.5c-4.1-1.7-7.7-4.4-10.7-7.7
							c-0.2-0.2-0.4-0.4-0.6-0.6c-0.3-0.4-0.7-0.8-1-1.2c-5.2-6.4-8.7-14.1-7.5-21.6c0.1-0.9,0.4-1.9,0.7-2.8
							c0.7-2.1,1.8-4.1,3.3-6.1c1.9-2.4,4.2-4.5,6.7-6.3c0.8-0.6,1.6-1.1,2.4-1.6c7.3-4.5,16.1-7.1,24.1-9c2.1-0.5,4.2-0.9,6.3-1.2
							c1-0.1,2-0.3,3-0.3c3.7-0.3,7.4-0.4,11.1-0.1c0.9,0.1,1.8,0.1,2.7,0.2c4.4,0.5,8.7,1.3,13,2.5c1.3,0.4,2.6,0.7,3.8,1.2
							C177.9,219,192,228.7,201.7,241.3z"/>
					</g>
					<path class="st4" d="M196.1,244.6l-2.7,1.6c-2.9-0.9-5.9-1.8-8.9-2.6c-0.1,0.2-0.2,0.4-0.5,0.5c-3.1,2-6.9,4.2-9.4,7.3
						c-1.1,0.2-2.3,0.4-3.4,0.6c2.4-3.9,6.7-6.8,10.5-9.2c-3.7-1.1-7.4-2.3-11-3.6c-2.5-0.9-4.9-1.6-7.5-2.1
						c0.5,5.3-3.2,10.6-6.1,14.7c-2.4,3.4-5.1,6.5-7.9,9.6c-1.9,0.9-3.8,1.9-5.8,2.7c0-0.1,0.1-0.1,0.1-0.2
						c3.6-3.8,7.2-7.7,10.4-11.9c3.1-4,7.4-9.6,6.9-15c0-0.1,0-0.2,0-0.3c-6.9-1.1-14-1-21-1.3c-4.1-0.2-8.2-0.4-12.3-0.7
						c-1.5,7.4-9.8,12.8-15.7,16.5c-5.7,3.6-11.8,6.5-17.7,9.7c-0.2-0.2-0.4-0.4-0.6-0.6c-0.3-0.4-0.7-0.8-1-1.2
						c5.4-2.9,10.9-5.5,16.2-8.7c5.8-3.5,14.6-8.6,16.4-15.8c-2.2-0.1-4.3-0.2-6.5-0.3c-8-0.3-16.1-0.4-24,0.7
						c-2.9,0.4-6.5,1.1-9.6,2.5c0.1-0.9,0.4-1.9,0.7-2.8c2.7-1,5.6-1.6,8.1-2c7.6-1.2,15.3-1.2,23-0.9c-3.4-2.3-7.6-4-11.3-5.6
						c-3.3-1.4-6.5-2.7-9.9-4c0.8-0.6,1.6-1.1,2.4-1.6c2.9,1.1,5.7,2.2,8.5,3.5c4.8,2.1,10.1,4.2,14.1,7.7c0.1,0.1,0.1,0.1,0.2,0.2
						c1.8,0.1,3.6,0.2,5.3,0.3c0.1,0,0.2,0,0.3,0c4.9,0.3,9.8,0.6,14.7,0.8c0.2,0,0.3,0,0.4,0c-0.8-4.9-3.4-9.5-6-13.6
						c-2-3.2-4.4-6.5-7.3-9.1c1-0.1,2-0.3,3-0.3c2.4,2.5,4.4,5.3,6.2,8.1c2.9,4.5,5.5,9.6,6.4,15c3.3,0.1,6.6,0.2,9.8,0.5
						c-3.8-7.9-7.5-15.8-11.3-23.7c0.9,0.1,1.8,0.1,2.7,0.2c3.8,7.9,7.6,15.8,11.3,23.7c5.1,0.5,10.1,1.5,15.2,3.2
						c-1.9-3.9-3.6-8-5.5-11.9c-2.2-4.5-4.9-8.7-8-12.6c1.3,0.4,2.6,0.7,3.8,1.2c2.1,3,4.1,6.1,5.8,9.4c2.4,4.7,4.4,9.6,6.7,14.3
						c0.1,0.2,0.1,0.4,0.1,0.6C181.9,240.7,189.1,242.5,196.1,244.6z"/>
				</g>
			</g>
		</g>
	</g>
	<g>
		<linearGradient id="SVGID_6_" gradientUnits="userSpaceOnUse" x1="249.9997" y1="355.635" x2="249.9997" y2="141.9697">
			<stop  offset="1.879010e-02" style="stop-color:#FF9D3B"/>
			<stop  offset="0.9838" style="stop-color:#FFD239"/>
			<stop  offset="1" style="stop-color:#FFD039"/>
		</linearGradient>
		<path class="st8" d="M342.7,411.4H157.3c-4,0-7.2-3.2-7.2-7.2V152.2c0-4,3.2-7.2,7.2-7.2h185.4c4,0,7.2,3.2,7.2,7.2v251.9
			C349.9,408.1,346.7,411.4,342.7,411.4z"/>
		<rect x="164.1" y="159.5" class="st9" width="178.6" height="244.7"/>
		<linearGradient id="SVGID_7_" gradientUnits="userSpaceOnUse" x1="139.3535" y1="404.388" x2="367.3529" y2="144.3889">
			<stop  offset="0" style="stop-color:#FFFFFF"/>
			<stop  offset="0.2367" style="stop-color:#FCFCFC"/>
			<stop  offset="0.4055" style="stop-color:#F3F3F3"/>
			<stop  offset="0.532" style="stop-color:#E6E6E6"/>
			<stop  offset="0.6382" style="stop-color:#F1F1F1"/>
			<stop  offset="0.8054" style="stop-color:#FCFCFC"/>
			<stop  offset="1" style="stop-color:#FFFFFF"/>
		</linearGradient>
		<rect x="161" y="155.5" class="st10" width="178.6" height="244.7"/>
		<g>
			<g>
				<g>
					<path class="st11" d="M321.3,374h-39.4v-39.4h39.4V374z M284.5,371.4h34.2v-34.2h-34.2V371.4z"/>
				</g>
			</g>
			<g>
				<g>
					<path class="st11" d="M321.4,215.7H282v-39.4h39.4V215.7z M284.6,213.2h34.2V179h-34.2V213.2z"/>
				</g>
				<g>
					<path class="st12" d="M297.8,212.2c0,0-0.1,0-0.1,0c-0.6,0-1.1-0.3-1.4-0.8l-9.2-12.4c-0.6-0.9-0.5-2.1,0.4-2.8
						c0.9-0.6,2.1-0.5,2.8,0.4l7.8,10.6l26.6-26.6c0.8-0.8,2-0.8,2.8,0c0.8,0.8,0.8,2,0,2.8l-28.2,28.2
						C298.9,211.9,298.4,212.2,297.8,212.2z"/>
				</g>
			</g>
			<g>
				<g>
					<path class="st11" d="M321.3,321.2h-39.4v-39.4h39.4V321.2z M284.5,318.6h34.2v-34.2h-34.2V318.6z"/>
				</g>
			</g>
			<g>
				<g>
					<path class="st11" d="M321.4,268.1H282v-39.4h39.4V268.1z M284.6,265.6h34.2v-34.2h-34.2V265.6z"/>
				</g>
				<g>
					<path class="st12" d="M297.8,264.6c0,0-0.1,0-0.1,0c-0.6,0-1.1-0.3-1.4-0.8l-9.2-12.4c-0.6-0.9-0.5-2.1,0.4-2.8
						c0.9-0.6,2.1-0.5,2.8,0.4l7.8,10.6l26.6-26.6c0.8-0.8,2-0.8,2.8,0c0.8,0.8,0.8,2,0,2.8L299.2,264
						C298.9,264.3,298.4,264.6,297.8,264.6z"/>
				</g>
			</g>
		</g>
		<g>
			<g>
				<path class="st12" d="M255.8,185.5h-79.4c-0.9,0-1.7-0.8-1.7-1.7l0,0c0-0.9,0.8-1.7,1.7-1.7h79.4c0.9,0,1.7,0.8,1.7,1.7l0,0
					C257.5,184.8,256.7,185.5,255.8,185.5z"/>
				<g>
					<path class="st11" d="M248.5,193.4h-72.1c-0.9,0-1.7-0.8-1.7-1.7l0,0c0-0.9,0.8-1.7,1.7-1.7h72.1c0.9,0,1.7,0.8,1.7,1.7l0,0
						C250.2,192.6,249.5,193.4,248.5,193.4z"/>
					<path class="st11" d="M248.5,210h-72.1c-0.9,0-1.7-0.8-1.7-1.7l0,0c0-0.9,0.8-1.7,1.7-1.7h72.1c0.9,0,1.7,0.8,1.7,1.7l0,0
						C250.2,209.2,249.5,210,248.5,210z"/>
					<g>
						<path class="st11" d="M218.5,201.6h-42.1c-0.9,0-1.7-0.8-1.7-1.7l0,0c0-0.9,0.8-1.7,1.7-1.7h42.1c0.9,0,1.7,0.8,1.7,1.7l0,0
							C220.2,200.9,219.4,201.6,218.5,201.6z"/>
						<path class="st11" d="M268.4,201.6h-42.1c-0.9,0-1.7-0.8-1.7-1.7l0,0c0-0.9,0.8-1.7,1.7-1.7h42.1c0.9,0,1.7,0.8,1.7,1.7l0,0
							C270.1,200.9,269.3,201.6,268.4,201.6z"/>
					</g>
				</g>
			</g>
			<g>
				<path class="st12" d="M255.8,236.9h-79.4c-0.9,0-1.7-0.8-1.7-1.7l0,0c0-0.9,0.8-1.7,1.7-1.7h79.4c0.9,0,1.7,0.8,1.7,1.7l0,0
					C257.5,236.1,256.7,236.9,255.8,236.9z"/>
				<g>
					<path class="st11" d="M248.5,244.8h-72.1c-0.9,0-1.7-0.8-1.7-1.7l0,0c0-0.9,0.8-1.7,1.7-1.7h72.1c0.9,0,1.7,0.8,1.7,1.7l0,0
						C250.2,244,249.5,244.8,248.5,244.8z"/>
					<path class="st11" d="M248.5,261.4h-72.1c-0.9,0-1.7-0.8-1.7-1.7l0,0c0-0.9,0.8-1.7,1.7-1.7h72.1c0.9,0,1.7,0.8,1.7,1.7l0,0
						C250.2,260.6,249.5,261.4,248.5,261.4z"/>
					<g>
						<path class="st11" d="M218.5,253h-42.1c-0.9,0-1.7-0.8-1.7-1.7l0,0c0-0.9,0.8-1.7,1.7-1.7h42.1c0.9,0,1.7,0.8,1.7,1.7l0,0
							C220.2,252.3,219.4,253,218.5,253z"/>
						<path class="st11" d="M268.4,253h-42.1c-0.9,0-1.7-0.8-1.7-1.7l0,0c0-0.9,0.8-1.7,1.7-1.7h42.1c0.9,0,1.7,0.8,1.7,1.7l0,0
							C270.1,252.3,269.3,253,268.4,253z"/>
					</g>
				</g>
			</g>
			<g>
				<path class="st12" d="M255.8,291.9h-79.4c-0.9,0-1.7-0.8-1.7-1.7l0,0c0-0.9,0.8-1.7,1.7-1.7h79.4c0.9,0,1.7,0.8,1.7,1.7l0,0
					C257.5,291.2,256.7,291.9,255.8,291.9z"/>
				<g>
					<path class="st11" d="M248.5,299.8h-72.1c-0.9,0-1.7-0.8-1.7-1.7l0,0c0-0.9,0.8-1.7,1.7-1.7h72.1c0.9,0,1.7,0.8,1.7,1.7l0,0
						C250.2,299,249.5,299.8,248.5,299.8z"/>
					<path class="st11" d="M248.5,316.4h-72.1c-0.9,0-1.7-0.8-1.7-1.7l0,0c0-0.9,0.8-1.7,1.7-1.7h72.1c0.9,0,1.7,0.8,1.7,1.7l0,0
						C250.2,315.7,249.5,316.4,248.5,316.4z"/>
					<g>
						<path class="st11" d="M218.5,308h-42.1c-0.9,0-1.7-0.8-1.7-1.7l0,0c0-0.9,0.8-1.7,1.7-1.7h42.1c0.9,0,1.7,0.8,1.7,1.7l0,0
							C220.2,307.3,219.4,308,218.5,308z"/>
						<path class="st11" d="M268.4,308h-42.1c-0.9,0-1.7-0.8-1.7-1.7l0,0c0-0.9,0.8-1.7,1.7-1.7h42.1c0.9,0,1.7,0.8,1.7,1.7l0,0
							C270.1,307.3,269.3,308,268.4,308z"/>
					</g>
				</g>
			</g>
			<g>
				<path class="st12" d="M255.8,345.2h-79.4c-0.9,0-1.7-0.8-1.7-1.7l0,0c0-0.9,0.8-1.7,1.7-1.7h79.4c0.9,0,1.7,0.8,1.7,1.7l0,0
					C257.5,344.5,256.7,345.2,255.8,345.2z"/>
				<g>
					<path class="st11" d="M248.5,353.1h-72.1c-0.9,0-1.7-0.8-1.7-1.7l0,0c0-0.9,0.8-1.7,1.7-1.7h72.1c0.9,0,1.7,0.8,1.7,1.7l0,0
						C250.2,352.3,249.5,353.1,248.5,353.1z"/>
					<path class="st11" d="M248.5,369.7h-72.1c-0.9,0-1.7-0.8-1.7-1.7l0,0c0-0.9,0.8-1.7,1.7-1.7h72.1c0.9,0,1.7,0.8,1.7,1.7l0,0
						C250.2,368.9,249.5,369.7,248.5,369.7z"/>
					<g>
						<path class="st11" d="M218.5,361.3h-42.1c-0.9,0-1.7-0.8-1.7-1.7l0,0c0-0.9,0.8-1.7,1.7-1.7h42.1c0.9,0,1.7,0.8,1.7,1.7l0,0
							C220.2,360.6,219.4,361.3,218.5,361.3z"/>
						<path class="st11" d="M268.4,361.3h-42.1c-0.9,0-1.7-0.8-1.7-1.7l0,0c0-0.9,0.8-1.7,1.7-1.7h42.1c0.9,0,1.7,0.8,1.7,1.7l0,0
							C270.1,360.6,269.3,361.3,268.4,361.3z"/>
					</g>
				</g>
			</g>
		</g>
		<linearGradient id="SVGID_8_" gradientUnits="userSpaceOnUse" x1="250.1554" y1="166.6995" x2="251.0063" y2="96.049">
			<stop  offset="0" style="stop-color:#074C47"/>
			<stop  offset="8.558875e-02" style="stop-color:#0A7067"/>
			<stop  offset="0.1771" style="stop-color:#0D8E81"/>
			<stop  offset="0.2783" style="stop-color:#0FA797"/>
			<stop  offset="0.391" style="stop-color:#11BAA8"/>
			<stop  offset="0.5217" style="stop-color:#12C8B4"/>
			<stop  offset="0.6863" style="stop-color:#13D0BB"/>
			<stop  offset="0.9955" style="stop-color:#13D2BD"/>
		</linearGradient>
		<path class="st13" d="M251.7,118.2h-2.8c-11.3,0-21.6,4.6-29,12c-5.9,5.9-10.1,13.7-11.5,22.4c-0.6,3.5,2.2,6.7,5.7,6.7h72.4
			c3.5,0,6.3-3.2,5.7-6.7C289.1,133.1,272.1,118.2,251.7,118.2z M250.8,138.2c-3.6,0-6.6-2.9-6.6-6.6c0-3.6,2.9-6.6,6.6-6.6
			c3.6,0,6.6,2.9,6.6,6.6C257.4,135.3,254.4,138.2,250.8,138.2z"/>
		<ellipse class="st14" cx="250" cy="433.7" rx="89.6" ry="4.9"/>
	</g>
	<g>
		<linearGradient id="SVGID_9_" gradientUnits="userSpaceOnUse" x1="317.6719" y1="168.8918" x2="378.029" y2="116.8484">
			<stop  offset="0.1749" style="stop-color:#D56F5A"/>
			<stop  offset="0.3515" style="stop-color:#D97C5C"/>
			<stop  offset="0.7548" style="stop-color:#E1965F"/>
			<stop  offset="0.9981" style="stop-color:#E49F60"/>
		</linearGradient>
		<path class="st15" d="M300.2,141.4c1.1,2.7,4,4,8.5,4.1c1.2,0,2.3,0,3.4-0.2c3.1-0.4,6-1.5,8.7-3L339,132l1.9-1.1
			c1.6-0.9,3.3-1.3,5.1-1.3c1.9,0,3.8,0.5,5.4,1.6c3.6,2.3,5.4,6.5,4.6,10.7l-1.2,5.9l0,0.1l12.3,15.7l0.1,0.2
			c-0.7,5.9,4,4.8,14.5,2.1c1.4-0.4,2.1-2.2-0.6-2.3l-10.7-0.9l0-0.1l-15.2-38c-3-7.4-11.2-11.6-18.7-9l-10.7,4.1l0,0l-15.8,5.5
			c-5.3,1.8-9.3,6.4-10,12C299.6,138.7,299.7,140.2,300.2,141.4z"/>
		<linearGradient id="SVGID_10_" gradientUnits="userSpaceOnUse" x1="331.068" y1="173.8171" x2="391.4252" y2="121.7737">
			<stop  offset="6.610600e-04" style="stop-color:#D56F5A"/>
			<stop  offset="0.5359" style="stop-color:#DC875D"/>
			<stop  offset="0.9981" style="stop-color:#E49F60"/>
		</linearGradient>
		<path class="st16" d="M342.9,188l0,0.1c-3.8,4.5,0.7,6.2,10.9,9.7c1.4,0.5,2.9-0.6,0.8-2.2l-8.4-6.7l0-0.1l8.5-41.2l1.2-5.9
			c0.9-4.2-1-8.4-4.6-10.7c-1.6-1-3.5-1.6-5.4-1.6c-1.7,0-3.5,0.4-5.1,1.3L339,132l-26.9,13.4l0,0l28.4-0.5L342.9,188z"/>
		<linearGradient id="SVGID_11_" gradientUnits="userSpaceOnUse" x1="287.2845" y1="112.5454" x2="314.2532" y2="112.5454">
			<stop  offset="0" style="stop-color:#074C47"/>
			<stop  offset="5.110245e-02" style="stop-color:#08544E"/>
			<stop  offset="0.5021" style="stop-color:#0E988A"/>
			<stop  offset="0.8287" style="stop-color:#12C2AF"/>
			<stop  offset="0.9955" style="stop-color:#13D2BD"/>
		</linearGradient>
		<path class="st17" d="M300.2,141.4L300.2,141.4c-0.5-1.2-0.7-2.7-0.4-4.5c0.7-5.6,4.7-10.2,10-12l7.5-2.6
			c-7.2-9.1-10.1-18-5.7-35.3l-6-3.4C285.1,109.1,287.2,127,300.2,141.4z"/>
		<linearGradient id="SVGID_12_" gradientUnits="userSpaceOnUse" x1="284.6414" y1="105.5763" x2="328.5912" y2="105.5763">
			<stop  offset="0" style="stop-color:#074C47"/>
			<stop  offset="0.2207" style="stop-color:#0B786D"/>
			<stop  offset="0.4541" style="stop-color:#0E9F90"/>
			<stop  offset="0.669" style="stop-color:#11BBA9"/>
			<stop  offset="0.8564" style="stop-color:#12CCB8"/>
			<stop  offset="0.9955" style="stop-color:#13D2BD"/>
		</linearGradient>
		<path class="st18" d="M332.4,113.2c-0.1-0.3-1.1-3.9-1.1-3.9l-31.5,4.6l7.5-14.3c1.4-2.6,2.3-5.5,2.4-8.5c0-3.8-2.1-6.9-6.4-5.4
			c-4,1.4-7.1,4.5-8.8,8.3c-9,19.8-8.3,31.4,6.1,31.6c4.1,0.1,8.2-1,11.8-3L332.4,113.2z"/>
		<path class="st19" d="M331.2,109.4l1.1,3.9l9.3-3.8C340.2,105.8,336.4,105.8,331.2,109.4z"/>
		<path class="st20" d="M327.1,115.4l1.2,3.2l22-8.5c0,0,3.4-25.1,3.2-25.1c-0.3,0-3.3,0-3.3,0l-3.5,22.4L327.1,115.4z"/>
		<path class="st21" d="M305.5,83.7l3.5-5.6l5.4,2.3c-1.7,2.2-2.4,4.6-3,6.7L305.5,83.7z"/>
		<g>
			<g>
				<path class="st19" d="M308.1,76.1c0.8,3.6,3.4,7.4,6.3,7.5c3,0.2,5.9-1.9,7.3-4.7c0,0,0.1,0,0.1,0c0.4,0,0.9,0,1-0.3
					c0.1-0.3-0.2-0.7-0.5-1c0.1-0.4,0.3-0.8,0.3-1.3c1.7-10-1.1-12.7-5-13.3c-3-0.4-7,3.3-8.8,7.1C308.5,69.9,306.9,75.5,308.1,76.1
					z"/>
				<g>
					<g>
						<path class="st22" d="M318.7,79c-0.5-0.6-0.9-1.5-0.5-2.8c0-0.1,0.1-0.2,0.2-0.1c0.1,0,0.2,0.1,0.1,0.2
							c-0.7,2.3,1.5,3.2,1.6,3.3c0.1,0,0.1,0.2,0.1,0.3c0,0.1-0.2,0.1-0.3,0.1C319.9,80,319.2,79.7,318.7,79z"/>
					</g>
				</g>
				<g>
					<g>
						<path class="st22" d="M320.4,75.3c-0.2,0.6-0.1,1.2,0.2,1.3c0.3,0.1,0.7-0.3,0.9-1c0.2-0.6,0.1-1.2-0.2-1.3
							C321,74.2,320.6,74.7,320.4,75.3z"/>
					</g>
				</g>
				<g>
					<g>
						<path class="st22" d="M319.8,73C319.8,73,319.8,73,319.8,73c-0.1-0.1-0.1-0.2,0-0.3c0.9-0.9,1.9-0.5,2.3-0.2
							c0.1,0.1,0.1,0.2,0,0.3c-0.1,0.1-0.2,0.1-0.3,0c0,0-0.9-0.7-1.8,0.2C320,73.1,319.9,73.1,319.8,73z"/>
					</g>
				</g>
			</g>
		</g>
		<g>
			<path class="st22" d="M353.8,197.9c1.4,0.5,2.9-0.6,0.8-2.2l-8.4-6.7l0-0.1c-1.2-0.3-2.3-0.6-3.3-0.8l0,0.1
				C339.1,192.6,343.6,194.3,353.8,197.9z"/>
			<path class="st22" d="M367.2,163.6c-0.7,5.9,4,4.8,14.5,2.1c1.4-0.4,2.1-2.2-0.6-2.3l-10.7-0.9l0-0.1c-1.4,0.4-2.5,0.8-3.3,1
				L367.2,163.6z"/>
		</g>
		<g>
			<path class="st22" d="M323.4,64.7c-0.7-1.9-1.7-3.8-3.8-4.5c-1.9-0.6-4.2-0.2-5.9,0.9c-0.3,0.2-0.6,0.4-1,0.4
				c-0.2,0-0.5-0.1-0.7-0.2c-1.6-0.5-3.5-0.1-4.9,0.9c-1.4,1-2.3,2.5-2.9,4.2c-0.8,2.3-0.6,4.9,0.2,7.2c0.4,1.2,1,2.2,1.8,3.2
				c0.2,0.2,2.4,2.3,2.4,2.3l2.6-2.6c0,0-0.7-1-0.8-1.4c-0.2-1.2-0.1-2.8,0.9-3.6c0.9-0.8,2.4-0.7,3.1,0.2c0.5,0.7,0.3,1.5,0.7,2.3
				c-0.1-0.2,2.7-2.7,2.7-3.4c0,0.6,7.5,2,8.9,0.5C324.2,68.6,323.9,66.1,323.4,64.7z"/>
		</g>
	</g>
	<g>
		<path class="st21" d="M195.5,86.8l-0.7-1c0,0,0,0,0,0l0,0l-3-4.3l-5.2,2.5c1.7,2,3.4,3.7,3.5,5.8l-3.8,6l5.7,2.2l6.4-8.2
			C197.3,88.7,196.2,87.7,195.5,86.8z"/>
		<linearGradient id="SVGID_13_" gradientUnits="userSpaceOnUse" x1="214.8793" y1="145.5808" x2="169.8656" y2="94.1959">
			<stop  offset="0" style="stop-color:#074C47"/>
			<stop  offset="5.110245e-02" style="stop-color:#08544E"/>
			<stop  offset="0.5021" style="stop-color:#0E988A"/>
			<stop  offset="0.8287" style="stop-color:#12C2AF"/>
			<stop  offset="0.9955" style="stop-color:#13D2BD"/>
		</linearGradient>
		<path class="st23" d="M207.1,120.4c1.1,7.5,4.5,13.6-3.7,23.1l-17.3-14.3c1.9-2.6,3.5-5.2,4.1-8L207.1,120.4z"/>
		<linearGradient id="SVGID_14_" gradientUnits="userSpaceOnUse" x1="178.0415" y1="97.767" x2="204.7915" y2="105.517">
			<stop  offset="1.943000e-03" style="stop-color:#E49F60"/>
			<stop  offset="0.1451" style="stop-color:#E0925E"/>
			<stop  offset="0.4236" style="stop-color:#DA7F5C"/>
			<stop  offset="0.7068" style="stop-color:#D6735A"/>
			<stop  offset="0.9993" style="stop-color:#D56F5A"/>
		</linearGradient>
		<path class="st24" d="M186.5,108.5c-2.6-3.9-2.6-8.9-0.1-12.8l0,0c2.6,0.7,5.2-0.5,6.4-2.9l2.8-6c10.5,5.5,5.7,26.3,11.2,29.8
			l-16.2,0.7c-0.1-1.5-0.5-3-1.2-4.5L186.5,108.5z"/>
		<path class="st22" d="M190.2,121.1c0.3-1.2,0.4-2.4,0.3-3.7l16.2-0.7c0.1,1.3,0.2,2.5,0.4,3.7L190.2,121.1z"/>
		<linearGradient id="SVGID_15_" gradientUnits="userSpaceOnUse" x1="184.3537" y1="172.3216" x2="139.3399" y2="120.9366">
			<stop  offset="0" style="stop-color:#074C47"/>
			<stop  offset="5.110245e-02" style="stop-color:#08544E"/>
			<stop  offset="0.5021" style="stop-color:#0E988A"/>
			<stop  offset="0.8287" style="stop-color:#12C2AF"/>
			<stop  offset="0.9955" style="stop-color:#13D2BD"/>
		</linearGradient>
		<path class="st25" d="M204.6,141.6c-1.1,2.7-3.9,4-8.2,4.2c-1.1,0-2.2,0-3.3-0.1l0,0c-3-0.4-5.9-1.3-8.6-2.8l-12.6-6.9l-5.2-2.9
			l-1.9-1.1c-1.5-0.8-3.3-1.3-5-1.2c-1.8,0-3.7,0.6-5.2,1.6c-3.5,2.3-5.2,6.5-4.3,10.5l1.3,5.8l0,0.1l-11.7,15.5l-0.1,0.2
			c0,0.1,0,0.2,0,0.3c0.6,5.4-4,4.4-14.1,2c-1.4-0.3-2.1-2.1,0.5-2.3l10.4-1.1l0-0.1l0.1-0.2l14.1-37.2c2.8-7.3,10.7-11.5,18.1-9.1
			l2.1,0.8l8.4,3l0,0l15.6,5c5.2,1.7,9.2,6.1,10,11.5C205.2,138.9,205.1,140.4,204.6,141.6z"/>
		<linearGradient id="SVGID_16_" gradientUnits="userSpaceOnUse" x1="149.972" y1="164.2618" x2="193.0918" y2="164.2618">
			<stop  offset="4.547280e-03" style="stop-color:#13D2BD"/>
			<stop  offset="0.1713" style="stop-color:#12C2AF"/>
			<stop  offset="0.4979" style="stop-color:#0E988A"/>
			<stop  offset="0.9489" style="stop-color:#08544E"/>
			<stop  offset="1" style="stop-color:#074C47"/>
		</linearGradient>
		<path class="st26" d="M168.1,145.6l-6.2,0c6.2,0,1.3,22.5,1.9,42.2l0,0.1c0,0,0.1,0.1,0.1,0.1c3.6,4.2-0.8,6-10.6,9.6
			c-1.4,0.5-2.9-0.6-0.8-2.2l8.1-6.7l0-0.1l-9.1-40.1l-1.3-5.8c-0.9-4.1,0.8-8.3,4.3-10.5c1.6-1,3.4-1.6,5.2-1.6
			c1.7,0,3.4,0.4,5,1.2l1.9,1.1l5.3,2.5l21.2,10.1L168.1,145.6z"/>
		<path class="st20" d="M179.6,117.1l-1.1,3.1l-21.9-7.4c0,0-4.4-24.3-4.1-24.3s3.2-0.1,3.2-0.1L160,110L179.6,117.1z"/>
		<g>
			<g>
				<path class="st19" d="M191.8,73.9c-1.9-3.6-6-7.1-8.9-6.6c-3.8,0.7-6.5,3.4-4.4,13.1c0.1,0.4,0.2,0.8,0.4,1.2
					c-0.3,0.3-0.6,0.7-0.5,1c0.1,0.3,0.6,0.3,1,0.3c0,0,0.1,0,0.1,0c1.5,2.7,4.4,4.6,7.4,4.3c2.9-0.3,5.2-4.1,5.9-7.6
					C193.8,78.9,192.1,73.6,191.8,73.9z"/>
				<g>
					<g>
						<path class="st22" d="M182.5,82.9c0.5-0.6,0.8-1.5,0.4-2.8c0-0.1-0.1-0.2-0.2-0.1c-0.1,0-0.2,0.1-0.1,0.2
							c0.8,2.2-1.3,3.2-1.4,3.3c-0.1,0-0.1,0.2-0.1,0.3c0,0.1,0.2,0.1,0.3,0.1C181.3,83.8,182,83.5,182.5,82.9z"/>
					</g>
				</g>
				<g>
					<g>
						<path class="st22" d="M180.6,79.3c0.2,0.6,0.1,1.2-0.2,1.3c-0.3,0.1-0.7-0.3-0.9-0.9c-0.2-0.6-0.1-1.2,0.2-1.3
							C180,78.3,180.4,78.7,180.6,79.3z"/>
					</g>
				</g>
				<g>
					<g>
						<path class="st22" d="M181.1,77C181.1,77,181.1,77,181.1,77c0.1-0.1,0.1-0.2,0-0.3c-0.9-0.9-1.9-0.4-2.3-0.1
							c-0.1,0.1-0.1,0.2,0,0.3c0.1,0.1,0.2,0.1,0.3,0c0,0,0.8-0.8,1.7,0.1C180.9,77.1,181.1,77.1,181.1,77z"/>
					</g>
				</g>
			</g>
		</g>
		<path class="st19" d="M202.4,96c-1.8-3.7-3-9.3-6-9.2c-3,0.2-5,2.1-4.2,4.3c0.4,1.2,10,20.9,10,20.9l-30.3-0.4
			c-5.1-4.5-9.4-4.7-10.6-1.1l9.2,3.3c0,0,36.2,9.6,37.6,3.1C209.1,112.2,202.7,96.7,202.4,96z"/>
		<path class="st22" d="M125.6,166.7c-1.4-0.3-2.1-2.1,0.5-2.3l10.4-1.1l0-0.1l0.1-0.2l3.1,1.6C140.3,170.1,135.6,169.1,125.6,166.7
			z"/>
		<path class="st22" d="M153.4,197.7c-1.4,0.5-2.9-0.6-0.8-2.2l8.1-6.7l0-0.1l3.3-0.6C167.5,192.3,163.1,194,153.4,197.7z"/>
		<linearGradient id="SVGID_17_" gradientUnits="userSpaceOnUse" x1="198.5635" y1="87.543" x2="159.5635" y2="51.543">
			<stop  offset="1.879010e-02" style="stop-color:#FF9D3B"/>
			<stop  offset="4.450426e-02" style="stop-color:#FF9F3B"/>
			<stop  offset="0.4153" style="stop-color:#FFBB3A"/>
			<stop  offset="0.7408" style="stop-color:#FFCC39"/>
			<stop  offset="0.9838" style="stop-color:#FFD239"/>
			<stop  offset="1" style="stop-color:#FFD039"/>
		</linearGradient>
		<path class="st27" d="M194.3,71.7l-3.2-3c-1.9-1.8-4.9-2.5-7.6-2.1c-0.1,0-4.7,0.8-5.9,3.9c-0.4,1-1.2,1.8-2.3,2.3
			c-4.7,2.1,0.2,7.7,2.5,4c0,0-0.2-1.3,0.9-2.5c1-1.1,2.7-0.8,3.5,0.4c1.2,1.8,3.6,4.2,4,4.5c-0.1-1.2-0.6-2.9,0.8-3.6
			c1.5-0.9,3.7,0.5,3.3,2.3c-0.2,0.8-0.8,1.6-1.6,1.8l0.5,10.2c0,0,2.9-1.8,5.6-4.7C198.3,81.1,198.1,75.3,194.3,71.7z"/>
	</g>
	<g>
		<g>
			<path class="st19" d="M133.7,326.3c-4.2-0.7-7.7-6.1-7.7-6.1c-11.3-2.5-23.8-6-33.1-11.5l8.5-7.1c7.5,5.9,17.1,10.4,27,13.8
				c2.1-0.2,3.6-0.1,4.7,0.2c1.4,0.3,1.3,2.4-0.2,2.5l-1.8,0.4l1.7,0.9c1.4,0.6,2.4,1.2,3.2,1.9
				C138.1,323.2,136.5,326.8,133.7,326.3z"/>
			
				<linearGradient id="SVGID_18_" gradientUnits="userSpaceOnUse" x1="36.508" y1="361.725" x2="116.1362" y2="296.2941" gradientTransform="matrix(0.582 0.8132 -0.8132 0.582 305.162 42.0945)">
				<stop  offset="0" style="stop-color:#074C47"/>
				<stop  offset="5.110245e-02" style="stop-color:#08544E"/>
				<stop  offset="0.5021" style="stop-color:#0E988A"/>
				<stop  offset="0.8287" style="stop-color:#12C2AF"/>
				<stop  offset="0.9955" style="stop-color:#13D2BD"/>
			</linearGradient>
			<path class="st28" d="M92.9,308.8c-2.2-1.2-4.1-2.6-5.9-4.1c-2.9-2.4-5.1-5.4-6.6-8.8c-0.3-0.7-0.5-1.3-0.8-2
				c-1.2-3.9,2-7.9,6.1-7.5c1.9,0.2,3.5,1.3,4.4,2.9c2.7,4.7,6.5,8.8,11.2,12.4L92.9,308.8z"/>
		</g>
		<path class="st14" d="M48.6,432.4c0,2,21.2,3.7,47.3,3.7c26.1,0,47.3-1.6,47.3-3.7c0-2-21.2-3.7-47.3-3.7
			C69.8,428.8,48.6,430.4,48.6,432.4z"/>
		<g>
			<polygon class="st29" points="125.9,243.1 131.7,251.8 137.4,260.5 114.4,260.4 120.2,251.8 			"/>
			<path class="st11" d="M125.9,243.1l5.7,8.7c-3.6,0-8.1,0-11.5,0L125.9,243.1z"/>
			<g>
				<linearGradient id="SVGID_19_" gradientUnits="userSpaceOnUse" x1="113.8792" y1="333.9362" x2="137.4098" y2="333.9362">
					<stop  offset="1.879010e-02" style="stop-color:#FF9D3B"/>
					<stop  offset="0.9838" style="stop-color:#FFD239"/>
					<stop  offset="1" style="stop-color:#FFD039"/>
				</linearGradient>
				<polygon class="st30" points="114.4,260.4 137.4,260.5 136.9,407.5 113.9,407.4 				"/>
				
					<rect x="122.6" y="398.7" transform="matrix(3.319948e-03 -1 1 3.319948e-03 -285.2151 534.2211)" class="st11" width="5.5" height="23"/>
				<linearGradient id="SVGID_20_" gradientUnits="userSpaceOnUse" x1="125.3814" y1="403.7219" x2="125.3814" y2="428.4245">
					<stop  offset="6.610600e-04" style="stop-color:#D56F5A"/>
					<stop  offset="0.5359" style="stop-color:#DC875D"/>
					<stop  offset="0.9981" style="stop-color:#E49F60"/>
				</linearGradient>
				<path class="st31" d="M113.9,412.9l23,0.1l0,0.3c0,1.4,0,11-0.1,14.9c0,6.2-5,5.3-11.2,5.5l0,0c-6.2,0.1-11.4,1.1-11.6-5.2
					c-0.1-3.4-0.2-12.8-0.2-15.2L113.9,412.9z"/>
			</g>
		</g>
		<g>
			<path class="st21" d="M86.2,275.8c0,0-1.8,6.1-2.4,11.4c-0.3,2.5,6.1,5.4,6.3,5.3c0.3-0.1,0.6-0.4,0.5-0.8
				c-0.1-2.6-0.1-7.2,2-10.8L86.2,275.8z"/>
			<g>
				<path class="st19" d="M83.9,278.8c1.8,3.3,5.4,6.3,8.3,5.6c3-0.7,5.3-4.2,5.9-7.4c0,0,0.1,0,0.1,0c0.4-0.1,0.9-0.2,0.9-0.6
					c0-0.3-0.4-0.6-0.8-0.8c0-0.5,0-0.2,0-0.7c-1.1-10.4-4.7-12.2-8.7-11.6c-1.7,0.2-3.4,1.9-4.6,4
					C82.7,271.2,83.2,277.9,83.9,278.8z"/>
				<g>
					<path class="st22" d="M95.1,278.7c-0.7-0.5-1.3-1.3-1.3-2.6c0-0.1,0.1-0.2,0.2-0.2c0.1,0,0.2,0.1,0.2,0.2
						c0,2.4,2.4,2.8,2.5,2.8c0.1,0,0.2,0.1,0.2,0.2c0,0.1-0.1,0.2-0.2,0.2C96.6,279.3,95.8,279.2,95.1,278.7z"/>
				</g>
				<g>
					<path class="st22" d="M95.7,274.5c0,0.7,0.3,1.2,0.6,1.2c0.3,0,0.6-0.5,0.6-1.2c0-0.7-0.3-1.2-0.6-1.2
						C96,273.3,95.7,273.9,95.7,274.5z"/>
				</g>
				<g>
					<path class="st22" d="M94.5,272.5C94.5,272.5,94.5,272.5,94.5,272.5c-0.1-0.1-0.2-0.2-0.1-0.3c0.6-1.2,1.7-1.1,2.2-0.8
						c0.1,0,0.1,0.2,0.1,0.3c0,0.1-0.2,0.1-0.3,0.1c0,0-1.1-0.5-1.7,0.7C94.7,272.5,94.6,272.5,94.5,272.5z"/>
				</g>
			</g>
			<path class="st22" d="M88.9,427.5c-2.3,6.1,2.4,6.2,14.3,6.2c1.7,0,2.8-1.8,0-2.6l-9.2-3.7c0,0-4.2-0.1-5.1,0L88.9,427.5z"/>
			<path class="st22" d="M61.2,427c-2.3,6.1,2.8,6.1,14.7,6c1.7,0,2.8-1.8,0-2.6l-8.6-3.7c0,0-5.1-0.1-6,0L61.2,427z"/>
			<linearGradient id="SVGID_21_" gradientUnits="userSpaceOnUse" x1="74.8325" y1="381.7133" x2="98.1164" y2="381.7133">
				<stop  offset="6.610600e-04" style="stop-color:#D56F5A"/>
				<stop  offset="0.5359" style="stop-color:#DC875D"/>
				<stop  offset="0.9981" style="stop-color:#E49F60"/>
			</linearGradient>
			<path class="st32" d="M95.9,336.2h-21c9.6,28.8,14.1,59.2,14.1,91.1h5C98.8,397.4,99.4,367.1,95.9,336.2z"/>
			<linearGradient id="SVGID_22_" gradientUnits="userSpaceOnUse" x1="61.3421" y1="381.4121" x2="95.8521" y2="381.4121">
				<stop  offset="6.610600e-04" style="stop-color:#D56F5A"/>
				<stop  offset="0.5359" style="stop-color:#DC875D"/>
				<stop  offset="0.9981" style="stop-color:#E49F60"/>
			</linearGradient>
			<path class="st33" d="M95.9,336.2H71.4c-3.3,7.2,0.5,15.6,0.5,15.6c0,24.2-3.8,49.9-10.6,74.9h6
				C78.4,402.1,86.5,370.6,95.9,336.2z"/>
			<linearGradient id="SVGID_23_" gradientUnits="userSpaceOnUse" x1="51.11" y1="342.5297" x2="130.7397" y2="277.0976">
				<stop  offset="0" style="stop-color:#074C47"/>
				<stop  offset="5.110245e-02" style="stop-color:#08544E"/>
				<stop  offset="0.5021" style="stop-color:#0E988A"/>
				<stop  offset="0.8287" style="stop-color:#12C2AF"/>
				<stop  offset="0.9955" style="stop-color:#13D2BD"/>
			</linearGradient>
			<path class="st34" d="M95.9,336.2H71.4c4.7-16.2-1.1-31.5,3.3-41.1c1.7-3.7,4.2-6.4,7.7-7.9c5.2-2.1,11.3,0.6,13,6
				c1.1,3.3,0.6,7.7-0.1,12.6c-1.2,7.8-1.2,15.7-0.3,23.6L95.9,336.2z"/>
			<g>
				<path class="st19" d="M136.9,272.6c-2.8,3.2-9.2,3.3-9.2,3.3c-8.1,8.3-17.7,16.9-27.3,21.9L98.9,287c9-3.2,17.9-8.9,26-15.5
					c1-1.8,1.8-3.1,2.6-3.9c1-1,2.7,0.2,2.1,1.5l-0.6,1.7l1.6-1c1.2-0.9,2.3-1.4,3.3-1.7C136.5,267.3,138.7,270.5,136.9,272.6z"/>
				
					<linearGradient id="SVGID_24_" gradientUnits="userSpaceOnUse" x1="43.4335" y1="331.3837" x2="123.0673" y2="265.9483" gradientTransform="matrix(0.9981 -6.090000e-02 6.090000e-02 0.9981 -17.8795 7.1062)">
					<stop  offset="0" style="stop-color:#074C47"/>
					<stop  offset="5.110245e-02" style="stop-color:#08544E"/>
					<stop  offset="0.5021" style="stop-color:#0E988A"/>
					<stop  offset="0.8287" style="stop-color:#12C2AF"/>
					<stop  offset="0.9955" style="stop-color:#13D2BD"/>
				</linearGradient>
				<path class="st35" d="M100.4,297.9c-2.2,1.2-4.4,2.1-6.6,2.8c-3.5,1.2-7.3,1.5-10.9,0.9c-0.7-0.1-1.4-0.3-2.1-0.4
					c-4-1-5.6-5.8-3.1-9.1c1.1-1.5,2.9-2.3,4.8-2.2c5.4,0.2,10.9-0.9,16.5-2.9L100.4,297.9z"/>
			</g>
			<g>
				<path class="st22" d="M88.9,276.5c-1.8,0.3-2.6-3-1.9-4.2c1.2-2.1,3.3-0.8,4.1,0.7c0.6-1.1,2.2-1.2,2.3-2.7
					c0.7,0,3.6,1.3,3.6-0.5c0.1,1.7,5.3-0.1,5.9-0.7c-1.4-0.5-2.2-2.3-2.8-3.6c-0.6-1.2-1.1-3.3-2.3-4.1c-1.8-1.3-5.6,0.2-7.1,1.4
					c0,0-0.1,0.1-0.2,0.1c-0.7,0.6-1.6,0.8-2.5,0.6c-0.2,0-0.7-0.1-0.9-0.1c-1.2,0-2.6,0.7-3.5,1.6c-2.2,2.2-3.4,7.5-2,10.3
					c0.8,1.6,4.7,5.8,2.3,7.6c1.4,0.2,2.9-1.7,3.5-2.8C88,279.2,89.4,277.6,88.9,276.5"/>
			</g>
		</g>
	</g>
	<g>
		<ellipse class="st14" cx="396.5" cy="433.7" rx="37.6" ry="2.4"/>
		<g>
			<linearGradient id="SVGID_25_" gradientUnits="userSpaceOnUse" x1="415.3531" y1="394.3144" x2="398.3532" y2="445.3142">
				<stop  offset="0" style="stop-color:#074C47"/>
				<stop  offset="5.110245e-02" style="stop-color:#08544E"/>
				<stop  offset="0.5021" style="stop-color:#0E988A"/>
				<stop  offset="0.8287" style="stop-color:#12C2AF"/>
				<stop  offset="0.9955" style="stop-color:#13D2BD"/>
			</linearGradient>
			<path class="st36" d="M406.6,396.5c0,0-4.8,22.1-4.3,23c0,0,7.4,5.4,24,0.7v5.1c-38.5,13.2-37.4,2-32.9-28.8L406.6,396.5z"/>
			<path class="st22" d="M428.6,433.7l3.2,0c2.6-0.2,0.6-6.4,0.3-7.1c-0.5-1.3-0.7-4.4-0.5-5.8c0-0.2,0-0.4,0-0.5
				c-0.2-1.2-1.6-1.8-2.7-1.2c-0.7,0.4-1.6,0.5-2.6,1v5.1l1.5,0.8c0.6,0.8,0.8,3.8,0.3,4.7l-0.4,0.8
				C427.3,432.3,427.7,433.3,428.6,433.7z"/>
			<g>
				<path class="st19" d="M331.5,352.4c3.2,3,9.9,2.4,9.9,2.4c9.3,7.6,20.3,15.5,30.8,19.6l0.3-11.5c-9.6-2.3-19.5-7.2-28.7-13.1
					c-1.2-1.8-2.3-3-3.1-3.7c-1.2-1-2.8,0.5-2,1.8l0.8,1.7l-1.8-0.8c-1.4-0.8-2.6-1.2-3.6-1.4C331.2,346.8,329.3,350.4,331.5,352.4z
					"/>
				
					<linearGradient id="SVGID_26_" gradientUnits="userSpaceOnUse" x1="426.2578" y1="403.6172" x2="358.755" y2="353.1151" gradientTransform="matrix(0.9973 -7.290000e-02 7.290000e-02 0.9973 -25.5619 27.5709)">
					<stop  offset="6.610600e-04" style="stop-color:#D56F5A"/>
					<stop  offset="0.2932" style="stop-color:#D6735A"/>
					<stop  offset="0.5764" style="stop-color:#DA7F5C"/>
					<stop  offset="0.8549" style="stop-color:#E0925E"/>
					<stop  offset="0.9981" style="stop-color:#E49F60"/>
				</linearGradient>
				<path class="st37" d="M372.2,374.4c2.4,1,4.8,1.7,7.1,2.2c3.8,0.8,7.7,0.7,11.4-0.3c0.7-0.2,1.4-0.4,2.2-0.7
					c4-1.5,5.2-6.7,2.2-9.8c-1.4-1.4-3.3-2-5.2-1.8c-5.6,0.8-11.4,0.3-17.4-1.1L372.2,374.4z"/>
			</g>
			<g>
				<g class="st38">
					<path d="M353.1,349.7h-39.4v-39.4h39.4V349.7z M316.3,347.1h34.2v-34.2h-34.2V347.1z"/>
					<path d="M329.5,346.1c0,0-0.1,0-0.1,0c-0.6,0-1.1-0.3-1.4-0.8l-9.2-12.4c-0.6-0.9-0.5-2.1,0.4-2.8c0.9-0.6,2.1-0.5,2.8,0.4
						l7.8,10.6l26.6-26.6c0.8-0.8,2-0.8,2.8,0c0.8,0.8,0.8,2,0,2.8l-28.2,28.2C330.5,345.9,330,346.1,329.5,346.1z"/>
				</g>
				<g>
					<g>
						<g>
							<path class="st11" d="M354.1,348.7h-39.4v-39.4h39.4V348.7z M317.3,346.1h34.2v-34.2h-34.2V346.1z"/>
						</g>
						<g>
							<path class="st12" d="M330.5,345.1c0,0-0.1,0-0.1,0c-0.6,0-1.1-0.3-1.4-0.8l-9.2-12.4c-0.6-0.9-0.5-2.1,0.4-2.8
								c0.9-0.6,2.1-0.5,2.8,0.4l7.8,10.6l26.6-26.6c0.8-0.8,2-0.8,2.8,0c0.8,0.8,0.8,2,0,2.8l-28.2,28.2
								C331.5,344.9,331,345.1,330.5,345.1z"/>
						</g>
					</g>
				</g>
			</g>
			<polygon class="st21" points="385.8,350.7 390.1,358.8 382.4,360.8 380.1,351.6 			"/>
			<linearGradient id="SVGID_27_" gradientUnits="userSpaceOnUse" x1="396.9753" y1="369.4052" x2="387.9753" y2="405.4051">
				<stop  offset="0" style="stop-color:#074C47"/>
				<stop  offset="5.110245e-02" style="stop-color:#08544E"/>
				<stop  offset="0.5021" style="stop-color:#0E988A"/>
				<stop  offset="0.8287" style="stop-color:#12C2AF"/>
				<stop  offset="0.9955" style="stop-color:#13D2BD"/>
			</linearGradient>
			<path class="st39" d="M405.2,384.3c0,0,9.5,17.5-2.7,19c-1.8,0.2-3.6,0.1-5.4-0.3c-7.5-1.8-13.8-4-14.5-2.6
				c-0.9,1.7-3.5,10.3-0.3,27.3l-5.3-0.4c-9.4-28.4-8.5-46,13.9-38.9l0.1-3.9L405.2,384.3z"/>
			<path class="st22" d="M382.2,427.4c2.4,6.2-2.4,6.3-14.6,6.3c-1.7,0-2.9-1.8,0-2.7l9.4-3.8c0,0,4.3-0.1,5.2,0L382.2,427.4z"/>
			<linearGradient id="SVGID_28_" gradientUnits="userSpaceOnUse" x1="432.0548" y1="396.9967" x2="381.142" y2="369.448">
				<stop  offset="6.610600e-04" style="stop-color:#D56F5A"/>
				<stop  offset="0.2932" style="stop-color:#D6735A"/>
				<stop  offset="0.5764" style="stop-color:#DA7F5C"/>
				<stop  offset="0.8549" style="stop-color:#E0925E"/>
				<stop  offset="0.9981" style="stop-color:#E49F60"/>
			</linearGradient>
			<path class="st40" d="M385.8,388.5c0,0,16.3,2.8,22.1,1.4c0,0-3.7-25.7-15.6-31.2c-4.5-2.1-9.9-1.9-14,0.9c-2.5,1.7-2.8,3-3.6,6
				c-1.5,6,1.3,12.2,6.6,15.3C383.9,382.5,381.9,388,385.8,388.5z"/>
			<g>
				<path class="st19" d="M334.9,333.7c2.5,3.6,9.2,4.5,9.2,4.5c7.5,9.4,16.5,19.5,25.9,25.7l2.8-11.2c-8.9-4.3-17.5-11.2-25.3-18.9
					c-0.8-2-1.6-3.4-2.3-4.3c-1-1.2-2.8-0.1-2.3,1.3l0.5,1.8l-1.6-1.2c-1.2-1-2.3-1.7-3.2-2.1C335.9,328.3,333.3,331.3,334.9,333.7z
					"/>
				<linearGradient id="SVGID_29_" gradientUnits="userSpaceOnUse" x1="435.4703" y1="390.6843" x2="384.5575" y2="363.1356">
					<stop  offset="6.610600e-04" style="stop-color:#D56F5A"/>
					<stop  offset="0.2932" style="stop-color:#D6735A"/>
					<stop  offset="0.5764" style="stop-color:#DA7F5C"/>
					<stop  offset="0.8549" style="stop-color:#E0925E"/>
					<stop  offset="0.9981" style="stop-color:#E49F60"/>
				</linearGradient>
				<path class="st41" d="M370,363.9c2.1,1.4,4.3,2.7,6.5,3.7c3.5,1.6,7.4,2.3,11.2,2.1c0.8,0,1.5-0.1,2.3-0.2
					c4.3-0.6,6.5-5.4,4.2-9.1c-1-1.7-2.8-2.7-4.7-2.8c-5.6-0.4-11.2-2.1-16.7-4.8L370,363.9z"/>
			</g>
			<g>
				<path class="st19" d="M390.5,340.2c-0.4-2.4-1.4-4.5-3-5.3c-3.5-1.9-7.5-1.4-12,7.9c-0.2,0.4-0.1,0.2-0.3,0.6
					c-0.5,0.1-1,0.2-1,0.5c-0.1,0.3,0.3,0.6,0.6,0.8c0,0,0.1,0,0.1,0c-0.5,3.2,0.4,7.2,3,8.9c2.5,1.6,6.9,0,9.7-2.4
					C388.6,350.5,391.3,344.5,390.5,340.2z"/>
				<g>
					<path class="st22" d="M377.2,347.3c0.8-0.2,1.7-0.7,2.1-2c0-0.1,0-0.2-0.1-0.3c-0.1,0-0.2,0-0.3,0.1c-0.8,2.3-3.1,1.8-3.2,1.8
						c-0.1,0-0.2,0-0.2,0.2c0,0.1,0,0.2,0.2,0.2C375.7,347.4,376.4,347.5,377.2,347.3z"/>
				</g>
				<g>
					<path class="st22" d="M378,343.2c-0.2,0.6-0.6,1-1,0.9c-0.3-0.1-0.4-0.7-0.2-1.3c0.2-0.6,0.7-1,1-0.9
						C378.2,342,378.3,342.6,378,343.2z"/>
				</g>
				<g>
					<path class="st22" d="M379.9,341.7C379.9,341.7,379.9,341.7,379.9,341.7c0.1,0,0.2-0.1,0.2-0.2c-0.2-1.3-1.2-1.6-1.8-1.5
						c-0.1,0-0.2,0.1-0.2,0.2c0,0.1,0.1,0.2,0.2,0.2c0,0,1.2-0.1,1.4,1.2C379.7,341.6,379.8,341.7,379.9,341.7z"/>
				</g>
			</g>
			<g>
				<g>
					<polygon class="st22" points="379.4,339.1 379.4,339.1 379.4,339.1 					"/>
				</g>
				<g>
					<linearGradient id="SVGID_30_" gradientUnits="userSpaceOnUse" x1="388.9893" y1="357.0684" x2="379.4893" y2="314.0685">
						<stop  offset="1.879010e-02" style="stop-color:#FF9D3B"/>
						<stop  offset="0.9838" style="stop-color:#FFD239"/>
						<stop  offset="1" style="stop-color:#FFD039"/>
					</linearGradient>
					<path class="st42" d="M376.7,333.4c0.2-0.8,2.2-5.3,2.2-5.8c0,1.5,0.3,3,1.4,4.2c0.2-0.6,0.2-1.2,0.4-1.8
						c0.2-0.8,0.6-1.5,0.9-2.2c0,1.9,2.4,3.6,3.9,4.3c-0.1-0.7,0.6-1.4,1.1-1.9c0.2,1.1,0.7,2.1,1.4,3c0.8,1.1,4.5,4.4,5.4,8.2
						c0.5,2.1,0.6,4.4-0.6,6.3c-1.3,1.9-2.7,3.6-5,4.3c-2.1,0.6-3.7,0.1-5.6-0.7c0.5-0.7,4.4-6.2-1.9-12.3c-0.1,0.8,0.2,1.7,0.5,2.4
						c-3.9-2.5-4.2-4.8-4.3-5.5C376.4,335.1,376.5,334.2,376.7,333.4z"/>
				</g>
				<g>
					<path class="st22" d="M379.5,328.3c0-0.1,0-0.2,0-0.2C379.5,328.2,379.5,328.3,379.5,328.3z"/>
				</g>
			</g>
			<path class="st19" d="M382.1,347.9c0.5,1,1.8,1.3,3,0.7c1.1-0.6,1.6-1.9,1.1-2.9c-0.5-1-1.8-1.3-3-0.7
				C382.1,345.6,381.6,346.9,382.1,347.9z"/>
		</g>
	</g>
</g>
<g id="DESIGNED_BY_FREEPIK">
</g>
</svg>
